<?xml version="1.0" encoding="utf-8"?>
<!-- Generator: Adobe Illustrator 15.1.0, SVG Export Plug-In . SVG Version: 6.00 Build 0)  -->
<!DOCTYPE svg PUBLIC "-//W3C//DTD SVG 1.1//EN" "http://www.w3.org/Graphics/SVG/1.1/DTD/svg11.dtd">
<svg version="1.1" xmlns="http://www.w3.org/2000/svg" xmlns:xlink="http://www.w3.org/1999/xlink" x="0px" y="0px" width="612px"
	 height="792px" viewBox="0 0 612 792" enable-background="new 0 0 612 792" xml:space="preserve">
<g id="outline_x5F_template" display="none">
	<g display="inline">
		<circle fill="#BCBEC0" cx="26.561" cy="89.659" r="2.894"/>
		<circle fill="#BCBEC0" cx="26.561" cy="83.938" r="0.929"/>
		<circle fill="#BCBEC0" cx="32.283" cy="89.659" r="0.929"/>
		<circle fill="#BCBEC0" cx="26.563" cy="95.381" r="0.929"/>
		<circle fill="#BCBEC0" cx="20.84" cy="89.661" r="0.929"/>
		<path fill="#BCBEC0" d="M21.863,86.273c-0.365-0.363-0.365-0.952-0.004-1.315c0.365-0.363,0.954-0.363,1.314,0
			c0.361,0.361,0.365,0.952,0,1.315C22.812,86.636,22.223,86.634,21.863,86.273z"/>
		<circle fill="#BCBEC0" cx="30.61" cy="85.616" r="0.93"/>
		<circle fill="#BCBEC0" cx="30.61" cy="93.705" r="0.929"/>
		<path fill="#BCBEC0" d="M23.173,94.363c-0.361,0.363-0.95,0.363-1.31,0c-0.361-0.361-0.361-0.95,0-1.313
			c0.36-0.363,0.949-0.363,1.31-0.002C23.538,93.412,23.538,94,23.173,94.363z"/>
	</g>
	<g display="inline">
		<circle fill="#BCBEC0" cx="26.561" cy="395.499" r="2.894"/>
		<circle fill="#BCBEC0" cx="26.561" cy="389.779" r="0.929"/>
		<circle fill="#BCBEC0" cx="32.283" cy="395.499" r="0.929"/>
		<circle fill="#BCBEC0" cx="26.563" cy="401.221" r="0.929"/>
		<circle fill="#BCBEC0" cx="20.84" cy="395.501" r="0.929"/>
		<path fill="#BCBEC0" d="M21.863,392.114c-0.365-0.363-0.365-0.952-0.004-1.315c0.365-0.363,0.954-0.363,1.314,0
			c0.361,0.361,0.365,0.952,0,1.315C22.812,392.476,22.223,392.474,21.863,392.114z"/>
		<circle fill="#BCBEC0" cx="30.61" cy="391.456" r="0.93"/>
		<circle fill="#BCBEC0" cx="30.61" cy="399.545" r="0.929"/>
		<path fill="#BCBEC0" d="M23.173,400.203c-0.361,0.363-0.95,0.363-1.31,0c-0.361-0.36-0.361-0.949,0-1.313
			c0.36-0.362,0.949-0.362,1.31-0.002C23.538,399.252,23.538,399.84,23.173,400.203z"/>
	</g>
	<g display="inline">
		<circle fill="#BCBEC0" cx="26.561" cy="701.34" r="2.894"/>
		<circle fill="#BCBEC0" cx="26.561" cy="695.619" r="0.929"/>
		<circle fill="#BCBEC0" cx="32.283" cy="701.339" r="0.929"/>
		<circle fill="#BCBEC0" cx="26.563" cy="707.061" r="0.929"/>
		<circle fill="#BCBEC0" cx="20.84" cy="701.341" r="0.929"/>
		<path fill="#BCBEC0" d="M21.863,697.954c-0.365-0.363-0.365-0.952-0.004-1.315c0.365-0.362,0.954-0.362,1.314,0
			c0.361,0.361,0.365,0.952,0,1.315C22.812,698.316,22.223,698.314,21.863,697.954z"/>
		<path fill="#BCBEC0" d="M29.953,696.639c0.361-0.362,0.95-0.362,1.314,0c0.361,0.361,0.361,0.952,0,1.315
			c-0.365,0.36-0.954,0.358-1.314-0.003C29.588,697.589,29.588,697,29.953,696.639z"/>
		<path fill="#BCBEC0" d="M31.267,704.729c0.361,0.363,0.361,0.951,0,1.313c-0.365,0.363-0.954,0.363-1.314,0
			c-0.361-0.361-0.361-0.949,0-1.313C30.317,704.369,30.906,704.369,31.267,704.729z"/>
		<path fill="#BCBEC0" d="M23.173,706.043c-0.361,0.363-0.95,0.363-1.31,0c-0.361-0.359-0.361-0.949,0-1.313
			c0.36-0.361,0.949-0.361,1.31-0.002C23.538,705.092,23.538,705.68,23.173,706.043z"/>
	</g>
	<g display="inline">
		<path fill="#BCBEC0" d="M28.927,648.694v-0.479l1.09,0.106l-0.646-0.9l0.411-0.241l0.458,1.013l0.45-1.013l0.413,0.241l-0.637,0.9
			l1.087-0.106v0.479l-1.087-0.114l0.637,0.902l-0.413,0.242l-0.45-1.03l-0.458,1.03l-0.411-0.242l0.645-0.902L28.927,648.694z"/>
		<path fill="#BCBEC0" d="M28.985,643.77v-0.514h1.479v-0.814h0.444v0.814h3.54v0.514h-3.54v0.697h-0.444v-0.697H28.985z"/>
		<path fill="#BCBEC0" d="M28.927,641.672v-0.512h2.252c-0.273-0.208-0.478-0.438-0.614-0.686c-0.135-0.249-0.203-0.52-0.203-0.811
			c0-0.297,0.076-0.562,0.227-0.793c0.151-0.23,0.354-0.4,0.61-0.511c0.255-0.11,0.655-0.165,1.199-0.165h2.051v0.514h-1.9
			c-0.459,0-0.765,0.018-0.919,0.055c-0.264,0.063-0.462,0.179-0.595,0.346c-0.133,0.168-0.2,0.387-0.2,0.658
			c0,0.31,0.103,0.588,0.308,0.833s0.459,0.407,0.761,0.485c0.195,0.049,0.557,0.074,1.083,0.074h1.461v0.512H28.927z"/>
		<path fill="#BCBEC0" d="M30.465,637.289v-0.522h0.583c-0.229-0.156-0.401-0.321-0.515-0.494s-0.17-0.354-0.17-0.542
			c0-0.141,0.045-0.293,0.136-0.453l0.432,0.268c-0.046,0.107-0.07,0.197-0.07,0.271c0,0.171,0.07,0.335,0.21,0.493
			c0.141,0.159,0.358,0.279,0.654,0.363c0.227,0.063,0.686,0.095,1.377,0.095h1.348v0.522H30.465z"/>
		<path fill="#BCBEC0" d="M33.126,631.516l0.227-0.433c0.279,0.142,0.503,0.306,0.674,0.491c0.171,0.186,0.301,0.395,0.39,0.627
			c0.089,0.232,0.134,0.494,0.134,0.787c0,0.65-0.213,1.158-0.639,1.524s-0.908,0.55-1.445,0.55c-0.505,0-0.956-0.155-1.351-0.465
			c-0.503-0.394-0.754-0.92-0.754-1.58c0-0.679,0.257-1.221,0.772-1.627c0.363-0.288,0.817-0.435,1.361-0.439v3.589
			c0.463-0.01,0.842-0.157,1.138-0.444c0.296-0.286,0.444-0.641,0.444-1.061c0-0.203-0.035-0.4-0.106-0.594
			c-0.07-0.191-0.164-0.354-0.281-0.489C33.575,631.818,33.386,631.672,33.126,631.516z M32.052,631.518
			c-0.272,0.068-0.49,0.168-0.653,0.299c-0.163,0.131-0.294,0.305-0.394,0.52c-0.1,0.215-0.149,0.441-0.149,0.678
			c0,0.392,0.125,0.729,0.376,1.01c0.182,0.205,0.456,0.359,0.82,0.465V631.518z"/>
		<path fill="#BCBEC0" d="M33.126,626.641l0.227-0.432c0.279,0.143,0.503,0.306,0.674,0.491c0.171,0.186,0.301,0.395,0.39,0.626
			c0.089,0.232,0.134,0.495,0.134,0.789c0,0.648-0.213,1.157-0.639,1.523c-0.426,0.367-0.908,0.55-1.445,0.55
			c-0.505,0-0.956-0.155-1.351-0.466c-0.503-0.393-0.754-0.92-0.754-1.578c0-0.68,0.257-1.222,0.772-1.627
			c0.363-0.289,0.817-0.436,1.361-0.44v3.589c0.463-0.01,0.842-0.158,1.138-0.443c0.296-0.287,0.444-0.641,0.444-1.062
			c0-0.203-0.035-0.401-0.106-0.593c-0.07-0.192-0.164-0.355-0.281-0.49S33.386,626.798,33.126,626.641z M32.052,626.644
			c-0.272,0.069-0.49,0.169-0.653,0.3c-0.163,0.131-0.294,0.303-0.394,0.519c-0.1,0.216-0.149,0.441-0.149,0.679
			c0,0.391,0.125,0.727,0.376,1.008c0.182,0.206,0.456,0.361,0.82,0.467V626.644z"/>
		<path fill="#BCBEC0" d="M28.927,623.048v-0.513h2.252c-0.273-0.207-0.478-0.436-0.614-0.686c-0.135-0.248-0.203-0.519-0.203-0.809
			c0-0.299,0.076-0.563,0.227-0.793c0.151-0.231,0.354-0.402,0.61-0.512c0.255-0.109,0.655-0.165,1.199-0.165h2.051v0.513h-1.9
			c-0.459,0-0.765,0.019-0.919,0.055c-0.264,0.064-0.462,0.18-0.595,0.347c-0.133,0.167-0.2,0.386-0.2,0.657
			c0,0.311,0.103,0.588,0.308,0.834s0.459,0.407,0.761,0.485c0.195,0.049,0.557,0.073,1.083,0.073h1.461v0.513H28.927z"/>
		<path fill="#BCBEC0" d="M30.362,616.588c0-0.613,0.222-1.121,0.667-1.523c0.405-0.367,0.885-0.551,1.439-0.551
			c0.557,0,1.043,0.194,1.459,0.582c0.417,0.387,0.625,0.884,0.625,1.492c0,0.61-0.208,1.109-0.625,1.496s-0.903,0.58-1.459,0.58
			c-0.552,0-1.03-0.183-1.435-0.549C30.586,617.712,30.362,617.203,30.362,616.588z M30.865,616.59c0,0.424,0.158,0.789,0.472,1.094
			c0.314,0.306,0.695,0.459,1.142,0.459c0.288,0,0.556-0.07,0.805-0.209c0.249-0.139,0.441-0.328,0.576-0.564
			s0.203-0.496,0.203-0.779s-0.068-0.543-0.203-0.78s-0.328-0.425-0.576-0.563c-0.249-0.14-0.518-0.209-0.805-0.209
			c-0.446,0-0.827,0.152-1.142,0.459S30.865,616.167,30.865,616.59z"/>
		<path fill="#BCBEC0" d="M28.927,613.642v-0.513h5.522v0.513H28.927z"/>
		<path fill="#BCBEC0" d="M33.126,608.705l0.227-0.432c0.279,0.142,0.503,0.305,0.674,0.49c0.171,0.186,0.301,0.395,0.39,0.627
			c0.089,0.232,0.134,0.494,0.134,0.788c0,0.649-0.213,1.157-0.639,1.524c-0.426,0.366-0.908,0.549-1.445,0.549
			c-0.505,0-0.956-0.154-1.351-0.465c-0.503-0.393-0.754-0.92-0.754-1.579c0-0.679,0.257-1.222,0.772-1.627
			c0.363-0.288,0.817-0.435,1.361-0.439v3.589c0.463-0.01,0.842-0.158,1.138-0.444c0.296-0.286,0.444-0.64,0.444-1.062
			c0-0.203-0.035-0.4-0.106-0.592c-0.07-0.193-0.164-0.355-0.281-0.49S33.386,608.861,33.126,608.705z M32.052,608.708
			c-0.272,0.068-0.49,0.168-0.653,0.299c-0.163,0.131-0.294,0.304-0.394,0.519c-0.1,0.216-0.149,0.441-0.149,0.679
			c0,0.392,0.125,0.728,0.376,1.009c0.182,0.205,0.456,0.361,0.82,0.466V608.708z"/>
		<path fill="#BCBEC0" d="M30.465,605.102v-0.512h0.732c-0.278-0.203-0.487-0.436-0.626-0.698s-0.209-0.557-0.209-0.881
			c0-0.565,0.204-1.049,0.612-1.45c0.408-0.402,0.898-0.604,1.472-0.604c0.585,0,1.083,0.199,1.492,0.598
			c0.409,0.398,0.613,0.879,0.613,1.441c0,0.316-0.066,0.607-0.198,0.873s-0.329,0.506-0.59,0.721h2.145v0.512H30.465z
			 M30.855,603.053c0,0.443,0.155,0.814,0.464,1.117c0.31,0.303,0.695,0.453,1.156,0.453c0.302,0,0.574-0.066,0.815-0.201
			c0.242-0.135,0.433-0.328,0.575-0.58c0.141-0.251,0.212-0.517,0.212-0.796c0-0.274-0.071-0.532-0.214-0.774
			c-0.143-0.241-0.342-0.434-0.598-0.577c-0.256-0.144-0.524-0.216-0.805-0.216c-0.283,0-0.551,0.072-0.805,0.214
			c-0.254,0.142-0.451,0.333-0.591,0.573C30.926,602.507,30.855,602.77,30.855,603.053z"/>
		<path fill="#BCBEC0" d="M30.465,600.06v-0.513h1.86c0.454,0,0.767-0.024,0.938-0.073c0.244-0.073,0.437-0.214,0.579-0.42
			c0.142-0.207,0.212-0.453,0.212-0.739c0-0.287-0.069-0.529-0.207-0.729s-0.319-0.337-0.544-0.412
			c-0.154-0.053-0.479-0.078-0.978-0.078h-1.86v-0.521h1.956c0.549,0,0.963,0.063,1.241,0.191c0.278,0.129,0.497,0.321,0.654,0.578
			c0.157,0.258,0.236,0.581,0.236,0.969c0,0.389-0.079,0.713-0.236,0.973s-0.377,0.454-0.659,0.582
			c-0.282,0.129-0.706,0.192-1.272,0.192H30.465z"/>
		<path fill="#BCBEC0" d="M30.465,595.438v-0.514h0.714c-0.273-0.205-0.478-0.432-0.614-0.681c-0.135-0.249-0.203-0.521-0.203-0.813
			c0-0.298,0.076-0.563,0.227-0.793s0.355-0.4,0.612-0.512c0.256-0.109,0.655-0.164,1.197-0.164h2.051v0.513h-1.9
			c-0.459,0-0.765,0.019-0.919,0.058c-0.264,0.06-0.462,0.174-0.595,0.342c-0.133,0.169-0.2,0.389-0.2,0.66
			c0,0.31,0.103,0.588,0.308,0.833s0.459,0.407,0.761,0.485c0.198,0.049,0.559,0.072,1.083,0.072h1.461v0.514H30.465z"/>
		<path fill="#BCBEC0" d="M31.292,586.996l0.252,0.406c-0.465,0.352-0.698,0.831-0.698,1.438c0,0.485,0.156,0.889,0.468,1.21
			c0.312,0.32,0.691,0.48,1.137,0.48c0.29,0,0.563-0.074,0.819-0.221c0.256-0.148,0.455-0.351,0.596-0.607
			c0.141-0.258,0.212-0.547,0.212-0.865c0-0.586-0.233-1.064-0.698-1.436l0.267-0.406c0.287,0.191,0.509,0.447,0.667,0.768
			c0.158,0.322,0.237,0.688,0.237,1.098c0,0.631-0.2,1.154-0.601,1.569s-0.888,0.623-1.461,0.623c-0.386,0-0.744-0.097-1.075-0.292
			c-0.331-0.193-0.589-0.461-0.774-0.8c-0.186-0.34-0.278-0.72-0.278-1.14c0-0.264,0.041-0.52,0.121-0.765
			c0.081-0.245,0.186-0.454,0.315-0.625C30.927,587.262,31.091,587.116,31.292,586.996z"/>
		<path fill="#BCBEC0" d="M28.927,586.012v-0.514h2.252c-0.273-0.207-0.478-0.436-0.614-0.685c-0.135-0.249-0.203-0.519-0.203-0.81
			c0-0.298,0.076-0.563,0.227-0.793s0.354-0.4,0.61-0.512c0.255-0.109,0.655-0.164,1.199-0.164h2.051v0.513h-1.9
			c-0.459,0-0.765,0.019-0.919,0.055c-0.264,0.063-0.462,0.179-0.595,0.347c-0.133,0.167-0.2,0.387-0.2,0.657
			c0,0.31,0.103,0.589,0.308,0.833c0.205,0.246,0.459,0.408,0.761,0.486c0.195,0.049,0.557,0.072,1.083,0.072h1.461v0.514H28.927z"
			/>
		<path fill="#BCBEC0" d="M28.985,577.813v-0.513h1.479v-0.815h0.444v0.815h3.54v0.513h-3.54v0.698h-0.444v-0.698H28.985z"/>
		<path fill="#BCBEC0" d="M30.362,573.83c0-0.613,0.222-1.121,0.667-1.523c0.405-0.367,0.885-0.551,1.439-0.551
			c0.557,0,1.043,0.194,1.459,0.582c0.417,0.387,0.625,0.884,0.625,1.492c0,0.61-0.208,1.109-0.625,1.496s-0.903,0.58-1.459,0.58
			c-0.552,0-1.03-0.183-1.435-0.549C30.586,574.954,30.362,574.445,30.362,573.83z M30.865,573.832c0,0.424,0.158,0.789,0.472,1.095
			c0.314,0.305,0.695,0.458,1.142,0.458c0.288,0,0.556-0.07,0.805-0.209c0.249-0.139,0.441-0.327,0.576-0.564
			c0.135-0.236,0.203-0.496,0.203-0.779s-0.068-0.543-0.203-0.78s-0.328-0.425-0.576-0.563c-0.249-0.14-0.518-0.209-0.805-0.209
			c-0.446,0-0.827,0.152-1.142,0.459S30.865,573.409,30.865,573.832z"/>
		<path fill="#BCBEC0" d="M31.292,564.862l0.252,0.407c-0.465,0.351-0.698,0.83-0.698,1.438c0,0.485,0.156,0.889,0.468,1.209
			c0.312,0.321,0.691,0.481,1.137,0.481c0.29,0,0.563-0.073,0.819-0.222c0.256-0.147,0.455-0.35,0.596-0.607
			c0.141-0.257,0.212-0.546,0.212-0.865c0-0.586-0.233-1.063-0.698-1.434l0.267-0.407c0.287,0.19,0.509,0.446,0.667,0.769
			c0.158,0.32,0.237,0.688,0.237,1.098c0,0.63-0.2,1.152-0.601,1.568c-0.4,0.415-0.888,0.623-1.461,0.623
			c-0.386,0-0.744-0.098-1.075-0.291c-0.331-0.195-0.589-0.461-0.774-0.801s-0.278-0.721-0.278-1.141
			c0-0.264,0.041-0.519,0.121-0.764c0.081-0.246,0.186-0.454,0.315-0.625C30.927,565.127,31.091,564.982,31.292,564.862z"/>
		<path fill="#BCBEC0" d="M30.465,564.068v-0.523h0.583c-0.229-0.155-0.401-0.32-0.515-0.494c-0.114-0.172-0.17-0.354-0.17-0.541
			c0-0.142,0.045-0.293,0.136-0.453l0.432,0.268c-0.046,0.107-0.07,0.197-0.07,0.27c0,0.172,0.07,0.336,0.21,0.494
			c0.141,0.158,0.358,0.279,0.654,0.362c0.227,0.063,0.686,0.095,1.377,0.095h1.348v0.523H30.465z"/>
		<path fill="#BCBEC0" d="M33.126,558.295l0.227-0.433c0.279,0.142,0.503,0.306,0.674,0.491c0.171,0.186,0.301,0.395,0.39,0.627
			c0.089,0.231,0.134,0.494,0.134,0.787c0,0.649-0.213,1.158-0.639,1.524s-0.908,0.55-1.445,0.55c-0.505,0-0.956-0.155-1.351-0.466
			c-0.503-0.394-0.754-0.92-0.754-1.579c0-0.68,0.257-1.222,0.772-1.627c0.363-0.288,0.817-0.435,1.361-0.439v3.588
			c0.463-0.01,0.842-0.157,1.138-0.443c0.296-0.286,0.444-0.641,0.444-1.061c0-0.203-0.035-0.401-0.106-0.594
			c-0.07-0.191-0.164-0.355-0.281-0.49C33.575,558.597,33.386,558.451,33.126,558.295z M32.052,558.297
			c-0.272,0.068-0.49,0.168-0.653,0.299c-0.163,0.131-0.294,0.304-0.394,0.52c-0.1,0.215-0.149,0.441-0.149,0.678
			c0,0.392,0.125,0.729,0.376,1.009c0.182,0.206,0.456,0.36,0.82,0.466V558.297z"/>
		<path fill="#BCBEC0" d="M30.465,552.808h3.984v0.508h-0.685c0.261,0.215,0.458,0.456,0.59,0.724
			c0.132,0.267,0.198,0.559,0.198,0.876c0,0.563-0.205,1.046-0.613,1.444c-0.409,0.398-0.907,0.599-1.492,0.599
			c-0.574,0-1.064-0.202-1.472-0.604s-0.612-0.887-0.612-1.453c0-0.327,0.07-0.623,0.209-0.887c0.139-0.266,0.348-0.498,0.626-0.698
			h-0.732V552.808z M30.855,554.859c0,0.285,0.07,0.547,0.21,0.788s0.337,0.433,0.591,0.574c0.253,0.144,0.521,0.214,0.805,0.214
			c0.28,0,0.548-0.072,0.805-0.215c0.256-0.145,0.455-0.337,0.598-0.578c0.143-0.242,0.214-0.502,0.214-0.779
			c0-0.28-0.071-0.545-0.212-0.796c-0.142-0.251-0.333-0.443-0.575-0.579c-0.241-0.135-0.513-0.202-0.815-0.202
			c-0.461,0-0.846,0.151-1.156,0.454C31.01,554.044,30.855,554.416,30.855,554.859z"/>
		<path fill="#BCBEC0" d="M28.985,551.21v-0.513h1.479v-0.815h0.444v0.815h3.54v0.513h-3.54v0.698h-0.444v-0.698H28.985z"/>
		<path fill="#BCBEC0" d="M33.126,545.756l0.227-0.432c0.279,0.142,0.503,0.305,0.674,0.49c0.171,0.187,0.301,0.396,0.39,0.627
			c0.089,0.232,0.134,0.495,0.134,0.788c0,0.649-0.213,1.157-0.639,1.524c-0.426,0.366-0.908,0.549-1.445,0.549
			c-0.505,0-0.956-0.154-1.351-0.465c-0.503-0.393-0.754-0.92-0.754-1.579c0-0.679,0.257-1.222,0.772-1.627
			c0.363-0.288,0.817-0.435,1.361-0.439v3.589c0.463-0.01,0.842-0.158,1.138-0.444c0.296-0.286,0.444-0.64,0.444-1.062
			c0-0.203-0.035-0.4-0.106-0.592c-0.07-0.192-0.164-0.355-0.281-0.49S33.386,545.913,33.126,545.756z M32.052,545.759
			c-0.272,0.068-0.49,0.169-0.653,0.299c-0.163,0.131-0.294,0.304-0.394,0.519c-0.1,0.216-0.149,0.442-0.149,0.68
			c0,0.391,0.125,0.727,0.376,1.008c0.182,0.205,0.456,0.361,0.82,0.466V545.759z"/>
		<path fill="#BCBEC0" d="M30.465,542.592v-0.539l3.063-1.371l-3.063-1.332v-0.546l5.444,2.378v0.545l-1.771-0.773L30.465,542.592z"
			/>
		<path fill="#BCBEC0" d="M30.362,536.256c0-0.613,0.222-1.121,0.667-1.524c0.405-0.366,0.885-0.55,1.439-0.55
			c0.557,0,1.043,0.194,1.459,0.581c0.417,0.388,0.625,0.885,0.625,1.493c0,0.609-0.208,1.109-0.625,1.496s-0.903,0.58-1.459,0.58
			c-0.552,0-1.03-0.183-1.435-0.549C30.586,537.381,30.362,536.871,30.362,536.256z M30.865,536.258
			c0,0.424,0.158,0.789,0.472,1.094c0.314,0.306,0.695,0.459,1.142,0.459c0.288,0,0.556-0.07,0.805-0.209
			c0.249-0.14,0.441-0.328,0.576-0.564s0.203-0.496,0.203-0.779s-0.068-0.543-0.203-0.78s-0.328-0.425-0.576-0.563
			c-0.249-0.14-0.518-0.209-0.805-0.209c-0.446,0-0.827,0.152-1.142,0.459S30.865,535.835,30.865,536.258z"/>
		<path fill="#BCBEC0" d="M30.465,533.295v-0.513h1.86c0.454,0,0.767-0.024,0.938-0.073c0.244-0.073,0.437-0.214,0.579-0.42
			c0.142-0.207,0.212-0.453,0.212-0.74c0-0.285-0.069-0.529-0.207-0.728c-0.138-0.2-0.319-0.337-0.544-0.413
			c-0.154-0.051-0.479-0.077-0.978-0.077h-1.86v-0.522h1.956c0.549,0,0.963,0.064,1.241,0.192s0.497,0.321,0.654,0.579
			c0.157,0.257,0.236,0.58,0.236,0.969c0,0.388-0.079,0.711-0.236,0.972c-0.157,0.26-0.377,0.454-0.659,0.582
			c-0.282,0.128-0.706,0.192-1.272,0.192H30.465z"/>
		<path fill="#BCBEC0" d="M30.465,528.863v-0.523h0.583c-0.229-0.156-0.401-0.32-0.515-0.493s-0.17-0.354-0.17-0.542
			c0-0.141,0.045-0.293,0.136-0.453l0.432,0.268c-0.046,0.107-0.07,0.197-0.07,0.271c0,0.17,0.07,0.335,0.21,0.493
			c0.141,0.158,0.358,0.279,0.654,0.362c0.227,0.063,0.686,0.095,1.377,0.095h1.348v0.523H30.465z"/>
		<path fill="#BCBEC0" d="M30.362,522.454c0-0.613,0.222-1.122,0.667-1.524c0.405-0.366,0.885-0.549,1.439-0.549
			c0.557,0,1.043,0.193,1.459,0.58c0.417,0.388,0.625,0.885,0.625,1.493c0,0.61-0.208,1.109-0.625,1.496
			c-0.417,0.388-0.903,0.581-1.459,0.581c-0.552,0-1.03-0.184-1.435-0.55C30.586,523.578,30.362,523.068,30.362,522.454z
			 M30.865,522.455c0,0.426,0.158,0.791,0.472,1.096s0.695,0.457,1.142,0.457c0.288,0,0.556-0.069,0.805-0.208
			c0.249-0.14,0.441-0.327,0.576-0.563c0.135-0.237,0.203-0.498,0.203-0.781s-0.068-0.543-0.203-0.779s-0.328-0.425-0.576-0.564
			c-0.249-0.139-0.518-0.209-0.805-0.209c-0.446,0-0.827,0.154-1.142,0.461C31.023,521.669,30.865,522.033,30.865,522.455z"/>
		<path fill="#BCBEC0" d="M30.465,519.967v-0.527l2.891-1.219l-2.891-1.277v-0.086l2.891-1.282l-2.891-1.247v-0.533l3.984,1.734
			v0.093l-2.852,1.276l2.852,1.275v0.098L30.465,519.967z"/>
		<path fill="#BCBEC0" d="M30.465,513.197v-0.513h0.714c-0.273-0.205-0.478-0.433-0.614-0.681c-0.135-0.25-0.203-0.521-0.203-0.814
			c0-0.297,0.076-0.562,0.227-0.793c0.151-0.23,0.355-0.4,0.612-0.511c0.256-0.11,0.655-0.165,1.197-0.165h2.051v0.513h-1.9
			c-0.459,0-0.765,0.019-0.919,0.058c-0.264,0.06-0.462,0.174-0.595,0.342c-0.133,0.169-0.2,0.389-0.2,0.66
			c0,0.311,0.103,0.588,0.308,0.833s0.459,0.407,0.761,0.485c0.198,0.049,0.559,0.073,1.083,0.073h1.461v0.513H30.465z"/>
		<path fill="#BCBEC0" d="M30.465,506.738v-0.523h0.583c-0.229-0.156-0.401-0.32-0.515-0.493s-0.17-0.354-0.17-0.542
			c0-0.141,0.045-0.293,0.136-0.453l0.432,0.267c-0.046,0.107-0.07,0.198-0.07,0.271c0,0.171,0.07,0.336,0.21,0.494
			c0.141,0.158,0.358,0.279,0.654,0.362c0.227,0.063,0.686,0.095,1.377,0.095h1.348v0.523H30.465z"/>
		<path fill="#BCBEC0" d="M33.126,500.964l0.227-0.433c0.279,0.143,0.503,0.306,0.674,0.491c0.171,0.187,0.301,0.396,0.39,0.627
			c0.089,0.231,0.134,0.495,0.134,0.788c0,0.65-0.213,1.158-0.639,1.524s-0.908,0.55-1.445,0.55c-0.505,0-0.956-0.155-1.351-0.466
			c-0.503-0.394-0.754-0.919-0.754-1.579c0-0.68,0.257-1.221,0.772-1.627c0.363-0.289,0.817-0.435,1.361-0.439v3.588
			c0.463-0.01,0.842-0.157,1.138-0.443c0.296-0.287,0.444-0.641,0.444-1.061c0-0.204-0.035-0.4-0.106-0.594
			c-0.07-0.191-0.164-0.355-0.281-0.49S33.386,501.121,33.126,500.964z M32.052,500.967c-0.272,0.068-0.49,0.168-0.653,0.299
			c-0.163,0.131-0.294,0.304-0.394,0.519c-0.1,0.216-0.149,0.442-0.149,0.679c0,0.391,0.125,0.728,0.376,1.009
			c0.182,0.205,0.456,0.36,0.82,0.466V500.967z"/>
		<path fill="#BCBEC0" d="M28.927,497.807h0.502c-0.081,0.188-0.121,0.35-0.121,0.484c0,0.101,0.021,0.184,0.061,0.25
			s0.087,0.107,0.139,0.125c0.052,0.017,0.192,0.025,0.419,0.025h0.538v-0.832h0.444v0.832l3.54,0.004v0.512h-3.54v0.523h-0.444
			v-0.523h-0.623c-0.286,0-0.489-0.025-0.611-0.078s-0.22-0.143-0.295-0.268c-0.074-0.126-0.112-0.279-0.112-0.457
			C28.824,498.238,28.858,498.039,28.927,497.807z"/>
		<path fill="#BCBEC0" d="M33.126,493.735l0.227-0.433c0.279,0.143,0.503,0.306,0.674,0.491c0.171,0.187,0.301,0.396,0.39,0.627
			c0.089,0.231,0.134,0.495,0.134,0.788c0,0.65-0.213,1.158-0.639,1.524s-0.908,0.55-1.445,0.55c-0.505,0-0.956-0.156-1.351-0.466
			c-0.503-0.394-0.754-0.919-0.754-1.579c0-0.68,0.257-1.222,0.772-1.627c0.363-0.289,0.817-0.436,1.361-0.439v3.588
			c0.463-0.01,0.842-0.157,1.138-0.443c0.296-0.287,0.444-0.641,0.444-1.061c0-0.204-0.035-0.4-0.106-0.594
			c-0.07-0.191-0.164-0.355-0.281-0.49S33.386,493.893,33.126,493.735z M32.052,493.738c-0.272,0.068-0.49,0.168-0.653,0.299
			c-0.163,0.131-0.294,0.304-0.394,0.519c-0.1,0.216-0.149,0.442-0.149,0.679c0,0.391,0.125,0.728,0.376,1.009
			c0.182,0.205,0.456,0.36,0.82,0.466V493.738z"/>
		<path fill="#BCBEC0" d="M30.465,492.409v-0.523h0.583c-0.229-0.156-0.401-0.32-0.515-0.493c-0.114-0.174-0.17-0.354-0.17-0.542
			c0-0.141,0.045-0.292,0.136-0.453l0.432,0.267c-0.046,0.107-0.07,0.198-0.07,0.271c0,0.17,0.07,0.335,0.21,0.493
			c0.141,0.158,0.358,0.279,0.654,0.362c0.227,0.063,0.686,0.095,1.377,0.095h1.348v0.523H30.465z"/>
		<path fill="#BCBEC0" d="M33.126,486.635l0.227-0.432c0.279,0.142,0.503,0.305,0.674,0.49c0.171,0.187,0.301,0.396,0.39,0.627
			c0.089,0.232,0.134,0.495,0.134,0.788c0,0.65-0.213,1.158-0.639,1.524s-0.908,0.55-1.445,0.55c-0.505,0-0.956-0.155-1.351-0.466
			c-0.503-0.394-0.754-0.919-0.754-1.579c0-0.68,0.257-1.222,0.772-1.627c0.363-0.288,0.817-0.435,1.361-0.439v3.589
			c0.463-0.01,0.842-0.158,1.138-0.444c0.296-0.286,0.444-0.64,0.444-1.061c0-0.204-0.035-0.4-0.106-0.593
			c-0.07-0.192-0.164-0.356-0.281-0.49C33.575,486.938,33.386,486.792,33.126,486.635z M32.052,486.638
			c-0.272,0.068-0.49,0.168-0.653,0.299c-0.163,0.131-0.294,0.304-0.394,0.519c-0.1,0.216-0.149,0.442-0.149,0.679
			c0,0.392,0.125,0.728,0.376,1.009c0.182,0.205,0.456,0.361,0.82,0.466V486.638z"/>
		<path fill="#BCBEC0" d="M30.465,485.118v-0.513h0.714c-0.273-0.205-0.478-0.433-0.614-0.682c-0.135-0.249-0.203-0.521-0.203-0.813
			c0-0.298,0.076-0.562,0.227-0.793c0.151-0.23,0.355-0.401,0.612-0.511c0.256-0.11,0.655-0.165,1.197-0.165h2.051v0.513h-1.9
			c-0.459,0-0.765,0.019-0.919,0.058c-0.264,0.06-0.462,0.174-0.595,0.342c-0.133,0.169-0.2,0.389-0.2,0.66
			c0,0.31,0.103,0.588,0.308,0.833s0.459,0.407,0.761,0.485c0.198,0.049,0.559,0.073,1.083,0.073h1.461v0.513H30.465z"/>
		<path fill="#BCBEC0" d="M31.292,476.677l0.252,0.407c-0.465,0.352-0.698,0.83-0.698,1.438c0,0.486,0.156,0.889,0.468,1.21
			c0.312,0.32,0.691,0.48,1.137,0.48c0.29,0,0.563-0.073,0.819-0.222c0.256-0.146,0.455-0.35,0.596-0.606
			c0.141-0.258,0.212-0.546,0.212-0.866c0-0.585-0.233-1.063-0.698-1.434l0.267-0.407c0.287,0.19,0.509,0.447,0.667,0.769
			s0.237,0.687,0.237,1.098c0,0.631-0.2,1.153-0.601,1.568c-0.4,0.416-0.888,0.623-1.461,0.623c-0.386,0-0.744-0.097-1.075-0.291
			c-0.331-0.194-0.589-0.461-0.774-0.802c-0.186-0.339-0.278-0.719-0.278-1.139c0-0.265,0.041-0.52,0.121-0.765
			c0.081-0.246,0.186-0.454,0.315-0.625C30.927,476.942,31.091,476.797,31.292,476.677z"/>
		<path fill="#BCBEC0" d="M33.126,472.335l0.227-0.432c0.279,0.142,0.503,0.305,0.674,0.49c0.171,0.187,0.301,0.396,0.39,0.627
			c0.089,0.232,0.134,0.495,0.134,0.788c0,0.65-0.213,1.158-0.639,1.524s-0.908,0.55-1.445,0.55c-0.505,0-0.956-0.155-1.351-0.465
			c-0.503-0.395-0.754-0.92-0.754-1.58c0-0.679,0.257-1.221,0.772-1.627c0.363-0.288,0.817-0.435,1.361-0.439v3.589
			c0.463-0.01,0.842-0.157,1.138-0.444c0.296-0.286,0.444-0.64,0.444-1.061c0-0.204-0.035-0.4-0.106-0.593
			c-0.07-0.192-0.164-0.356-0.281-0.49C33.575,472.638,33.386,472.492,33.126,472.335z M32.052,472.338
			c-0.272,0.068-0.49,0.168-0.653,0.299c-0.163,0.131-0.294,0.304-0.394,0.519c-0.1,0.216-0.149,0.442-0.149,0.679
			c0,0.392,0.125,0.728,0.376,1.009c0.182,0.205,0.456,0.361,0.82,0.466V472.338z"/>
		<path fill="#BCBEC0" d="M34.449,468.708h-5.522v-0.513h2.223c-0.264-0.215-0.461-0.455-0.591-0.721
			c-0.131-0.267-0.196-0.558-0.196-0.875c0-0.563,0.205-1.045,0.613-1.444c0.409-0.398,0.905-0.598,1.489-0.598
			c0.576,0,1.068,0.201,1.476,0.604s0.612,0.887,0.612,1.453c0,0.325-0.07,0.618-0.209,0.882s-0.348,0.496-0.626,0.699h0.732
			V468.708z M34.059,466.656c0-0.284-0.07-0.547-0.211-0.788c-0.141-0.24-0.337-0.433-0.592-0.574
			c-0.254-0.143-0.522-0.214-0.806-0.214s-0.553,0.072-0.81,0.216c-0.256,0.143-0.456,0.336-0.599,0.577
			c-0.144,0.243-0.215,0.501-0.215,0.776c0,0.28,0.071,0.545,0.215,0.798c0.143,0.251,0.335,0.444,0.577,0.579
			c0.242,0.136,0.514,0.203,0.817,0.203c0.461,0,0.848-0.151,1.158-0.454C33.903,467.472,34.059,467.099,34.059,466.656z"/>
		<path fill="#BCBEC0" d="M30.362,461.739c0-0.612,0.222-1.121,0.667-1.523c0.405-0.366,0.885-0.549,1.439-0.549
			c0.557,0,1.043,0.193,1.459,0.58c0.417,0.388,0.625,0.885,0.625,1.492c0,0.611-0.208,1.11-0.625,1.497s-0.903,0.58-1.459,0.58
			c-0.552,0-1.03-0.183-1.435-0.549C30.586,462.864,30.362,462.354,30.362,461.739z M30.865,461.741c0,0.425,0.158,0.79,0.472,1.096
			c0.314,0.305,0.695,0.457,1.142,0.457c0.288,0,0.556-0.069,0.805-0.208c0.249-0.14,0.441-0.327,0.576-0.564
			c0.135-0.236,0.203-0.497,0.203-0.78s-0.068-0.543-0.203-0.779c-0.135-0.237-0.328-0.425-0.576-0.564
			c-0.249-0.139-0.518-0.209-0.805-0.209c-0.446,0-0.827,0.153-1.142,0.46S30.865,461.319,30.865,461.741z"/>
		<path fill="#BCBEC0" d="M30.362,456.829c0-0.612,0.222-1.121,0.667-1.523c0.405-0.366,0.885-0.55,1.439-0.55
			c0.557,0,1.043,0.193,1.459,0.58c0.417,0.388,0.625,0.886,0.625,1.493c0,0.61-0.208,1.109-0.625,1.496
			c-0.417,0.388-0.903,0.581-1.459,0.581c-0.552,0-1.03-0.184-1.435-0.55C30.586,457.954,30.362,457.444,30.362,456.829z
			 M30.865,456.831c0,0.425,0.158,0.79,0.472,1.095c0.314,0.306,0.695,0.458,1.142,0.458c0.288,0,0.556-0.069,0.805-0.209
			c0.249-0.139,0.441-0.327,0.576-0.563c0.135-0.237,0.203-0.497,0.203-0.78s-0.068-0.543-0.203-0.78
			c-0.135-0.236-0.328-0.425-0.576-0.563c-0.249-0.14-0.518-0.209-0.805-0.209c-0.446,0-0.827,0.153-1.142,0.46
			C31.023,456.044,30.865,456.409,30.865,456.831z"/>
		<path fill="#BCBEC0" d="M28.927,453.81v-0.513h3.142l-1.604-1.851v-0.751l1.899,2.191l2.085-2.318v0.728l-1.792,2.001h1.792v0.513
			H28.927z"/>
		<path fill="#BCBEC0" d="M33.644,449.477c0-0.124,0.044-0.231,0.132-0.319s0.195-0.132,0.322-0.132c0.125,0,0.231,0.044,0.32,0.132
			s0.134,0.195,0.134,0.319c0,0.125-0.045,0.231-0.134,0.32c-0.089,0.088-0.196,0.132-0.32,0.132c-0.127,0-0.234-0.044-0.322-0.132
			C33.688,449.708,33.644,449.602,33.644,449.477z"/>
	</g>
	<g display="inline">
		<path fill="#BCBEC0" d="M431.983,25.933V90.16h153.206V25.933H431.983z M584.189,26.933c0,0.977,0,61.25,0,62.227
			c-0.99,0-150.216,0-151.206,0c0-0.977,0-61.25,0-62.227C433.974,26.933,583.199,26.933,584.189,26.933z"/>
	</g>
	<g display="inline">
		<path fill="#BCBEC0" d="M53,115.748v532.124h532.124V115.748H53z M584.124,116.748c0,0.997,0,529.127,0,530.124
			c-0.997,0-529.127,0-530.124,0c0-0.997,0-529.127,0-530.124C54.997,116.748,583.127,116.748,584.124,116.748z"/>
	</g>
	<g display="inline">
		<path fill="#BCBEC0" d="M435.078,29.887h0.563v0.621c0.166-0.245,0.342-0.428,0.526-0.549s0.376-0.182,0.576-0.182
			c0.151,0,0.312,0.048,0.483,0.145l-0.285,0.461c-0.114-0.049-0.21-0.074-0.288-0.074c-0.182,0-0.357,0.075-0.526,0.225
			c-0.168,0.15-0.297,0.382-0.385,0.697c-0.068,0.242-0.102,0.732-0.102,1.469v1.438h-0.563V29.887z"/>
		<path fill="#BCBEC0" d="M441.242,32.731l0.461,0.242c-0.151,0.296-0.326,0.535-0.524,0.716c-0.198,0.182-0.421,0.32-0.669,0.415
			s-0.528,0.142-0.842,0.142c-0.693,0-1.236-0.227-1.628-0.682s-0.587-0.968-0.587-1.541c0-0.539,0.166-1.02,0.497-1.441
			c0.42-0.537,0.982-0.805,1.687-0.805c0.726,0,1.305,0.275,1.737,0.826c0.308,0.389,0.465,0.874,0.47,1.456h-3.828
			c0.011,0.492,0.168,0.894,0.474,1.208c0.306,0.314,0.683,0.471,1.132,0.471c0.217,0,0.428-0.037,0.633-0.112
			c0.204-0.075,0.379-0.174,0.522-0.297S441.075,33.006,441.242,32.731z M441.242,31.583c-0.073-0.292-0.18-0.525-0.319-0.699
			s-0.324-0.315-0.554-0.422c-0.23-0.107-0.472-0.16-0.725-0.16c-0.418,0-0.776,0.134-1.077,0.402
			c-0.219,0.195-0.385,0.488-0.497,0.879H441.242z"/>
		<path fill="#BCBEC0" d="M444.613,28.247v0.535c-0.2-0.086-0.372-0.129-0.516-0.129c-0.106,0-0.195,0.021-0.266,0.064
			s-0.114,0.092-0.133,0.148s-0.027,0.205-0.027,0.447v0.574h0.887v0.477h-0.888l-0.003,3.773h-0.547v-3.773h-0.563v-0.477h0.563
			v-0.664c0-0.305,0.028-0.522,0.084-0.652s0.151-0.235,0.285-0.314s0.296-0.119,0.486-0.119
			C444.153,28.137,444.366,28.174,444.613,28.247z"/>
		<path fill="#BCBEC0" d="M448.953,32.731l0.461,0.242c-0.151,0.296-0.326,0.535-0.524,0.716c-0.198,0.182-0.421,0.32-0.669,0.415
			s-0.528,0.142-0.842,0.142c-0.693,0-1.236-0.227-1.628-0.682s-0.587-0.968-0.587-1.541c0-0.539,0.166-1.02,0.497-1.441
			c0.42-0.537,0.982-0.805,1.687-0.805c0.726,0,1.305,0.275,1.737,0.826c0.308,0.389,0.465,0.874,0.47,1.456h-3.828
			c0.011,0.492,0.168,0.894,0.474,1.208c0.306,0.314,0.683,0.471,1.132,0.471c0.217,0,0.428-0.037,0.633-0.112
			c0.204-0.075,0.379-0.174,0.522-0.297S448.786,33.006,448.953,32.731z M448.953,31.583c-0.073-0.292-0.18-0.525-0.319-0.699
			s-0.324-0.315-0.554-0.422c-0.23-0.107-0.472-0.16-0.725-0.16c-0.418,0-0.776,0.134-1.077,0.402
			c-0.219,0.195-0.385,0.488-0.497,0.879H448.953z"/>
		<path fill="#BCBEC0" d="M450.363,29.887h0.563v0.621c0.166-0.245,0.342-0.428,0.526-0.549s0.376-0.182,0.576-0.182
			c0.151,0,0.312,0.048,0.483,0.145l-0.285,0.461c-0.114-0.049-0.21-0.074-0.288-0.074c-0.182,0-0.357,0.075-0.526,0.225
			c-0.168,0.15-0.297,0.382-0.385,0.697c-0.068,0.242-0.102,0.732-0.102,1.469v1.438h-0.563V29.887z"/>
		<path fill="#BCBEC0" d="M456.527,32.731l0.461,0.242c-0.151,0.296-0.326,0.535-0.524,0.716c-0.198,0.182-0.421,0.32-0.669,0.415
			s-0.528,0.142-0.842,0.142c-0.693,0-1.236-0.227-1.628-0.682s-0.587-0.968-0.587-1.541c0-0.539,0.166-1.02,0.497-1.441
			c0.42-0.537,0.982-0.805,1.687-0.805c0.726,0,1.305,0.275,1.737,0.826c0.308,0.389,0.465,0.874,0.47,1.456h-3.828
			c0.011,0.492,0.168,0.894,0.474,1.208c0.306,0.314,0.683,0.471,1.132,0.471c0.217,0,0.428-0.037,0.633-0.112
			c0.204-0.075,0.379-0.174,0.522-0.297S456.36,33.006,456.527,32.731z M456.527,31.583c-0.073-0.292-0.18-0.525-0.319-0.699
			s-0.324-0.315-0.554-0.422c-0.23-0.107-0.472-0.16-0.725-0.16c-0.418,0-0.776,0.134-1.077,0.402
			c-0.219,0.195-0.385,0.488-0.497,0.879H456.527z"/>
		<path fill="#BCBEC0" d="M458.141,29.887h0.547v0.762c0.219-0.292,0.461-0.51,0.728-0.654c0.266-0.145,0.556-0.217,0.868-0.217
			c0.318,0,0.601,0.081,0.847,0.242s0.429,0.379,0.546,0.652s0.176,0.699,0.176,1.277v2.188h-0.547v-2.025
			c0-0.489-0.021-0.815-0.063-0.979c-0.064-0.281-0.187-0.492-0.366-0.634c-0.18-0.142-0.415-0.212-0.704-0.212
			c-0.33,0-0.627,0.109-0.889,0.328c-0.262,0.219-0.435,0.489-0.518,0.812c-0.052,0.21-0.078,0.596-0.078,1.155v1.557h-0.547V29.887
			z"/>
		<path fill="#BCBEC0" d="M467.145,30.774l-0.434,0.27c-0.375-0.5-0.887-0.75-1.535-0.75c-0.519,0-0.948,0.167-1.291,0.499
			s-0.514,0.736-0.514,1.212c0,0.309,0.079,0.6,0.236,0.873s0.374,0.485,0.648,0.635c0.274,0.151,0.583,0.226,0.924,0.226
			c0.625,0,1.136-0.25,1.531-0.75l0.434,0.285c-0.203,0.309-0.477,0.548-0.819,0.718s-0.733,0.255-1.171,0.255
			c-0.672,0-1.23-0.213-1.673-0.641c-0.443-0.427-0.665-0.947-0.665-1.559c0-0.412,0.104-0.793,0.311-1.146s0.492-0.628,0.854-0.826
			s0.768-0.297,1.216-0.297c0.281,0,0.554,0.043,0.815,0.129c0.262,0.086,0.484,0.199,0.667,0.337
			C466.861,30.383,467.017,30.56,467.145,30.774z"/>
		<path fill="#BCBEC0" d="M471.781,32.731l0.461,0.242c-0.151,0.296-0.326,0.535-0.524,0.716c-0.198,0.182-0.421,0.32-0.669,0.415
			s-0.528,0.142-0.842,0.142c-0.693,0-1.236-0.227-1.628-0.682s-0.587-0.968-0.587-1.541c0-0.539,0.166-1.02,0.497-1.441
			c0.42-0.537,0.982-0.805,1.687-0.805c0.726,0,1.305,0.275,1.737,0.826c0.308,0.389,0.465,0.874,0.47,1.456h-3.828
			c0.011,0.492,0.168,0.894,0.474,1.208c0.306,0.314,0.683,0.471,1.132,0.471c0.217,0,0.428-0.037,0.633-0.112
			c0.204-0.075,0.379-0.174,0.522-0.297S471.614,33.006,471.781,32.731z M471.781,31.583c-0.073-0.292-0.18-0.525-0.319-0.699
			s-0.324-0.315-0.554-0.422c-0.23-0.107-0.472-0.16-0.725-0.16c-0.418,0-0.776,0.134-1.077,0.402
			c-0.219,0.195-0.385,0.488-0.497,0.879H471.781z"/>
		<path fill="#BCBEC0" d="M475.609,29.887h0.547v0.762c0.219-0.292,0.461-0.51,0.728-0.654c0.266-0.145,0.556-0.217,0.868-0.217
			c0.318,0,0.601,0.081,0.847,0.242s0.429,0.379,0.546,0.652s0.176,0.699,0.176,1.277v2.188h-0.547v-2.025
			c0-0.489-0.021-0.815-0.063-0.979c-0.064-0.281-0.187-0.492-0.366-0.634c-0.18-0.142-0.415-0.212-0.704-0.212
			c-0.33,0-0.627,0.109-0.889,0.328c-0.262,0.219-0.435,0.489-0.518,0.812c-0.052,0.21-0.078,0.596-0.078,1.155v1.557h-0.547V29.887
			z"/>
		<path fill="#BCBEC0" d="M480.418,29.887h0.547v1.984c0,0.484,0.026,0.818,0.078,1c0.078,0.26,0.228,0.466,0.447,0.617
			s0.482,0.227,0.787,0.227s0.563-0.074,0.775-0.221s0.358-0.34,0.439-0.58c0.055-0.164,0.082-0.512,0.082-1.043v-1.984h0.563v2.086
			c0,0.586-0.068,1.027-0.205,1.324s-0.343,0.529-0.617,0.697s-0.619,0.252-1.033,0.252s-0.76-0.084-1.037-0.252
			s-0.484-0.402-0.621-0.703s-0.205-0.753-0.205-1.357V29.887z"/>
		<path fill="#BCBEC0" d="M485.352,29.887h0.547v0.734c0.19-0.271,0.386-0.469,0.587-0.594c0.276-0.167,0.566-0.25,0.872-0.25
			c0.205,0,0.401,0.041,0.586,0.121c0.186,0.081,0.337,0.188,0.454,0.322s0.219,0.326,0.305,0.576
			c0.183-0.333,0.41-0.586,0.683-0.76c0.273-0.173,0.567-0.26,0.883-0.26c0.293,0,0.553,0.074,0.778,0.223
			c0.225,0.148,0.392,0.355,0.501,0.621s0.164,0.664,0.164,1.195v2.32h-0.563v-2.32c0-0.456-0.032-0.769-0.098-0.939
			c-0.064-0.17-0.176-0.308-0.333-0.412c-0.156-0.104-0.344-0.156-0.563-0.156c-0.265,0-0.507,0.078-0.726,0.234
			c-0.22,0.156-0.38,0.365-0.48,0.625c-0.102,0.26-0.152,0.695-0.152,1.305v1.664h-0.547v-2.176c0-0.513-0.032-0.861-0.096-1.045
			s-0.175-0.331-0.334-0.441s-0.348-0.166-0.566-0.166c-0.253,0-0.489,0.076-0.709,0.229s-0.383,0.357-0.488,0.615
			s-0.158,0.652-0.158,1.184v1.801h-0.547V29.887z"/>
		<path fill="#BCBEC0" d="M492.895,34.137v-5.891h0.547v2.371c0.229-0.281,0.484-0.492,0.768-0.631s0.594-0.209,0.932-0.209
			c0.601,0,1.113,0.218,1.538,0.654s0.638,0.965,0.638,1.588c0,0.615-0.215,1.139-0.644,1.574s-0.944,0.652-1.548,0.652
			c-0.346,0-0.658-0.074-0.939-0.223c-0.28-0.148-0.528-0.371-0.744-0.668v0.781H492.895z M495.08,33.715
			c0.304,0,0.584-0.075,0.841-0.224s0.461-0.358,0.613-0.628c0.151-0.27,0.228-0.555,0.228-0.855s-0.076-0.587-0.229-0.859
			s-0.359-0.484-0.617-0.636c-0.259-0.152-0.534-0.228-0.827-0.228c-0.299,0-0.582,0.076-0.851,0.228s-0.475,0.356-0.619,0.612
			c-0.144,0.257-0.216,0.546-0.216,0.867c0,0.49,0.161,0.9,0.484,1.229S494.607,33.715,495.08,33.715z"/>
		<path fill="#BCBEC0" d="M501.898,32.731l0.461,0.242c-0.151,0.296-0.326,0.535-0.524,0.716c-0.198,0.182-0.421,0.32-0.669,0.415
			s-0.528,0.142-0.842,0.142c-0.693,0-1.236-0.227-1.628-0.682s-0.587-0.968-0.587-1.541c0-0.539,0.166-1.02,0.497-1.441
			c0.42-0.537,0.982-0.805,1.687-0.805c0.726,0,1.305,0.275,1.737,0.826c0.308,0.389,0.465,0.874,0.47,1.456h-3.828
			c0.011,0.492,0.168,0.894,0.474,1.208c0.306,0.314,0.683,0.471,1.132,0.471c0.217,0,0.428-0.037,0.633-0.112
			c0.204-0.075,0.379-0.174,0.522-0.297S501.731,33.006,501.898,32.731z M501.898,31.583c-0.073-0.292-0.18-0.525-0.319-0.699
			s-0.324-0.315-0.554-0.422c-0.23-0.107-0.472-0.16-0.725-0.16c-0.418,0-0.776,0.134-1.077,0.402
			c-0.219,0.195-0.385,0.488-0.497,0.879H501.898z"/>
		<path fill="#BCBEC0" d="M503.309,29.887h0.563v0.621c0.166-0.245,0.342-0.428,0.526-0.549s0.376-0.182,0.576-0.182
			c0.151,0,0.312,0.048,0.483,0.145l-0.285,0.461c-0.114-0.049-0.21-0.074-0.288-0.074c-0.182,0-0.357,0.075-0.526,0.225
			c-0.168,0.15-0.297,0.382-0.385,0.697c-0.068,0.242-0.102,0.732-0.102,1.469v1.438h-0.563V29.887z"/>
	</g>
	<g display="inline">
		<path fill="#BCBEC0" d="M304.234,750.422h1.816l4.145,9.891l4.328-9.891h0.335l4.368,9.891l4.254-9.891h1.816l-5.907,13.625
			h-0.339l-4.34-9.75l-4.334,9.75h-0.364L304.234,750.422z"/>
		<path fill="#BCBEC0" d="M325.556,750.422h1.815l4.146,9.891l4.328-9.891h0.335l4.368,9.891l4.254-9.891h1.816l-5.907,13.625
			h-0.338l-4.341-9.75l-4.334,9.75h-0.364L325.556,750.422z"/>
		<path fill="#BCBEC0" d="M346.878,750.422h1.815l4.146,9.891l4.328-9.891h0.335l4.368,9.891l4.254-9.891h1.816l-5.907,13.625
			h-0.338l-4.341-9.75l-4.334,9.75h-0.364L346.878,750.422z"/>
		<path fill="#BCBEC0" d="M371.973,761.281c0.426,0,0.788,0.15,1.089,0.451c0.3,0.301,0.45,0.669,0.45,1.104
			c0,0.426-0.15,0.792-0.45,1.098c-0.301,0.305-0.663,0.457-1.089,0.457s-0.788-0.152-1.089-0.457c-0.3-0.306-0.45-0.672-0.45-1.098
			c0-0.435,0.15-0.803,0.45-1.104C371.185,761.432,371.547,761.281,371.973,761.281z"/>
		<path fill="#BCBEC0" d="M375.451,750.422h3.496l3.426,8.04l3.425-8.04h3.481l-5.805,13.625h-2.219L375.451,750.422z"/>
		<path fill="#BCBEC0" d="M405.453,758.219h-10.972c0.158,0.97,0.581,1.74,1.269,2.313c0.688,0.572,1.564,0.858,2.631,0.858
			c1.275,0,2.371-0.447,3.288-1.342l2.875,1.352c-0.718,1.018-1.576,1.771-2.577,2.258c-1.001,0.488-2.189,0.732-3.566,0.732
			c-2.135,0-3.874-0.674-5.217-2.021c-1.344-1.347-2.015-3.034-2.015-5.061c0-2.077,0.67-3.802,2.009-5.173
			c1.34-1.373,3.02-2.059,5.039-2.059c2.146,0,3.89,0.686,5.233,2.057c1.344,1.372,2.016,3.183,2.016,5.434L405.453,758.219z
			 M402.028,755.531c-0.226-0.758-0.669-1.375-1.332-1.85c-0.663-0.476-1.432-0.713-2.308-0.713c-0.95,0-1.783,0.267-2.5,0.8
			c-0.451,0.334-0.867,0.921-1.251,1.763H402.028z"/>
		<path fill="#BCBEC0" d="M422.074,753.185l-2.844,1.565c-0.534-0.557-1.063-0.943-1.584-1.16c-0.522-0.216-1.134-0.324-1.835-0.324
			c-1.278,0-2.312,0.381-3.101,1.143c-0.789,0.761-1.184,1.736-1.184,2.926c0,1.157,0.38,2.102,1.139,2.834
			c0.76,0.731,1.757,1.098,2.992,1.098c1.527,0,2.717-0.521,3.568-1.563l2.691,1.843c-1.461,1.896-3.521,2.845-6.184,2.845
			c-2.395,0-4.271-0.709-5.626-2.127c-1.356-1.418-2.034-3.077-2.034-4.979c0-1.317,0.33-2.531,0.989-3.641s1.58-1.98,2.761-2.614
			c1.182-0.634,2.503-0.951,3.964-0.951c1.353,0,2.567,0.27,3.644,0.808C420.509,751.425,421.39,752.19,422.074,753.185z"/>
		<path fill="#BCBEC0" d="M426.09,745.391h3.422v5.031h2.031v2.938h-2.031v10.688h-3.422v-10.688h-1.75v-2.938h1.75V745.391z"/>
		<path fill="#BCBEC0" d="M440.283,750.078c1.286,0,2.495,0.321,3.627,0.963c1.132,0.643,2.016,1.515,2.65,2.615
			c0.635,1.102,0.952,2.289,0.952,3.565c0,1.284-0.319,2.485-0.958,3.604c-0.64,1.117-1.511,1.991-2.613,2.621
			s-2.318,0.944-3.646,0.944c-1.954,0-3.623-0.694-5.006-2.083c-1.382-1.389-2.073-3.075-2.073-5.061
			c0-2.127,0.781-3.899,2.343-5.317C436.929,750.695,438.504,750.078,440.283,750.078z M440.334,753.297
			c-1.062,0-1.945,0.369-2.652,1.105c-0.706,0.736-1.06,1.68-1.06,2.829c0,1.183,0.349,2.14,1.047,2.872
			c0.698,0.733,1.583,1.1,2.653,1.1s1.961-0.37,2.671-1.111c0.711-0.741,1.066-1.694,1.066-2.86s-0.349-2.113-1.048-2.842
			C442.314,753.661,441.422,753.297,440.334,753.297z"/>
		<path fill="#BCBEC0" d="M450.013,750.422h2.922v1.723c0.317-0.676,0.74-1.189,1.267-1.54c0.527-0.351,1.104-0.526,1.731-0.526
			c0.443,0,0.907,0.117,1.393,0.352l-1.065,2.949c-0.4-0.201-0.73-0.301-0.989-0.301c-0.526,0-0.972,0.325-1.335,0.976
			s-0.545,1.927-0.545,3.827l0.013,0.663v5.503h-3.391V750.422z"/>
		<path fill="#BCBEC0" d="M458.066,750.422h3.496l3.426,8.04l3.425-8.04h3.481l-5.805,13.625h-2.219L458.066,750.422z"/>
		<path fill="#BCBEC0" d="M484.473,750.422h3.422v13.625h-3.422v-1.44c-0.666,0.632-1.335,1.088-2.006,1.366
			s-1.397,0.418-2.181,0.418c-1.758,0-3.278-0.682-4.562-2.045c-1.282-1.364-1.924-3.06-1.924-5.086
			c0-2.102,0.621-3.824,1.861-5.167c1.242-1.343,2.75-2.015,4.524-2.015c0.816,0,1.583,0.154,2.299,0.463
			c0.717,0.309,1.379,0.771,1.987,1.388V750.422z M480.887,753.234c-1.057,0-1.934,0.373-2.632,1.119
			c-0.698,0.747-1.048,1.704-1.048,2.871c0,1.176,0.355,2.144,1.066,2.902c0.711,0.76,1.586,1.139,2.626,1.139
			c1.072,0,1.962-0.373,2.669-1.119c0.707-0.747,1.061-1.725,1.061-2.934c0-1.185-0.354-2.144-1.061-2.878
			C482.861,753.602,481.968,753.234,480.887,753.234z"/>
		<path fill="#BCBEC0" d="M491.86,750.422h3.453v6.554c0,1.276,0.088,2.162,0.264,2.658c0.175,0.496,0.458,0.882,0.847,1.157
			c0.389,0.274,0.867,0.412,1.437,0.412c0.568,0,1.052-0.136,1.449-0.406c0.397-0.271,0.692-0.669,0.884-1.194
			c0.143-0.392,0.214-1.23,0.214-2.515v-6.666h3.422v5.771c0,2.378-0.188,4.005-0.563,4.882c-0.459,1.067-1.135,1.888-2.028,2.459
			c-0.893,0.571-2.028,0.857-3.405,0.857c-1.494,0-2.702-0.334-3.624-1.001c-0.923-0.668-1.571-1.599-1.947-2.792
			c-0.267-0.826-0.4-2.328-0.4-4.506V750.422z"/>
		<path fill="#BCBEC0" d="M507.41,745.156h3.422v18.891h-3.422V745.156z"/>
		<path fill="#BCBEC0" d="M514.855,745.391h3.422v5.031h2.031v2.938h-2.031v10.688h-3.422v-10.688h-1.75v-2.938h1.75V745.391z"/>
		<path fill="#BCBEC0" d="M524.803,761.281c0.426,0,0.788,0.15,1.089,0.451c0.3,0.301,0.45,0.669,0.45,1.104
			c0,0.426-0.15,0.792-0.45,1.098c-0.301,0.305-0.663,0.457-1.089,0.457s-0.788-0.152-1.089-0.457c-0.3-0.306-0.45-0.672-0.45-1.098
			c0-0.435,0.15-0.803,0.45-1.104C524.015,761.432,524.377,761.281,524.803,761.281z"/>
		<path fill="#BCBEC0" d="M543.195,753.261l-1.391,0.864c-1.202-1.594-2.842-2.391-4.92-2.391c-1.66,0-3.04,0.533-4.137,1.6
			c-1.098,1.066-1.646,2.361-1.646,3.887c0,0.991,0.252,1.924,0.758,2.799c0.504,0.875,1.197,1.554,2.077,2.037
			c0.881,0.483,1.868,0.725,2.961,0.725c2.003,0,3.639-0.797,4.907-2.391l1.391,0.914c-0.652,0.979-1.527,1.738-2.626,2.277
			s-2.351,0.809-3.754,0.809c-2.155,0-3.944-0.684-5.364-2.052c-1.421-1.368-2.131-3.032-2.131-4.992
			c0-1.317,0.332-2.541,0.996-3.672c0.664-1.13,1.577-2.012,2.739-2.646c1.161-0.634,2.46-0.951,3.897-0.951
			c0.902,0,1.773,0.138,2.613,0.414c0.84,0.275,1.553,0.635,2.137,1.077C542.289,752.012,542.785,752.576,543.195,753.261z"/>
		<path fill="#BCBEC0" d="M553.027,750.078c2.098,0,3.836,0.759,5.215,2.277c1.253,1.385,1.88,3.023,1.88,4.916
			c0,1.902-0.662,3.564-1.987,4.986c-1.324,1.422-3.027,2.133-5.107,2.133c-2.09,0-3.797-0.711-5.121-2.133
			c-1.325-1.422-1.987-3.084-1.987-4.986c0-1.885,0.627-3.52,1.88-4.904C549.178,750.842,550.921,750.078,553.027,750.078z
			 M553.021,751.797c-1.456,0-2.706,0.537-3.752,1.612c-1.046,1.074-1.568,2.374-1.568,3.898c0,0.983,0.238,1.899,0.715,2.749
			c0.478,0.85,1.121,1.506,1.933,1.969c0.812,0.462,1.702,0.693,2.673,0.693c0.97,0,1.861-0.231,2.673-0.693
			c0.812-0.463,1.455-1.119,1.932-1.969c0.478-0.85,0.716-1.766,0.716-2.749c0-1.524-0.524-2.824-1.575-3.898
			C555.717,752.334,554.468,751.797,553.021,751.797z"/>
		<path fill="#BCBEC0" d="M563.358,750.422h1.75v2.355c0.61-0.869,1.237-1.504,1.882-1.904c0.887-0.53,1.818-0.795,2.797-0.795
			c0.661,0,1.288,0.13,1.882,0.389s1.079,0.604,1.456,1.033c0.376,0.431,0.702,1.046,0.979,1.848
			c0.583-1.068,1.313-1.881,2.189-2.437c0.875-0.556,1.817-0.833,2.827-0.833c0.942,0,1.774,0.238,2.495,0.714
			c0.722,0.476,1.258,1.139,1.608,1.989c0.351,0.852,0.525,2.129,0.525,3.83v7.436h-1.797v-7.435c0-1.46-0.104-2.464-0.313-3.01
			c-0.208-0.547-0.564-0.987-1.068-1.32c-0.504-0.334-1.105-0.501-1.806-0.501c-0.85,0-1.626,0.25-2.33,0.751
			s-1.219,1.168-1.543,2.003c-0.325,0.834-0.487,2.228-0.487,4.18v5.332h-1.75v-6.972c0-1.644-0.103-2.759-0.308-3.348
			c-0.204-0.588-0.562-1.06-1.071-1.414s-1.116-0.532-1.817-0.532c-0.812,0-1.57,0.244-2.275,0.732
			c-0.707,0.488-1.229,1.145-1.567,1.971c-0.339,0.826-0.508,2.091-0.508,3.793v5.77h-1.75V750.422z"/>
	</g>
	<g display="inline">
		<path fill="#BCBEC0" d="M77.479,46.475l-9.451,23.476h0.983v0.152H67.99l-0.076,0.151h-0.189l-0.378,0.983l-0.151-0.038
			l0.377-0.945h-3.175l0.378,0.945l-0.151,0.038l-0.378-0.983h-0.189l-0.038-0.151h-1.059v-0.152h0.983l-9.451-23.476h-1.021v-0.151
			h0.983l-0.076-0.151h0.189l-0.378-0.945l0.114-0.038l0.416,0.983h4.952l-0.378-0.945l0.113-0.038l0.416,0.983h0.151l0.076,0.151
			h1.058v0.151h-0.983l7.145,17.806l7.145-17.806h-1.021v-0.151h1.059l0.075-0.151h0.189l0.416-0.983l0.113,0.038l-0.378,0.945
			h2.381l0.416-0.983l0.114,0.038l-0.378,0.945h0.188l-0.075,0.151H78.5v0.151H77.479z M74.871,46.626l-7.41,18.486l0.416,1.021
			l-0.151,0.076l-0.34-0.907l-0.113,0.227l-0.075-0.227l-0.378,0.907l-0.113-0.038l0.416-1.059l-7.447-18.486h-4.612L64.399,69.8
			h3.175l9.338-23.174H74.871z"/>
		<path fill="#BCBEC0" d="M93.319,70.103v0.151H93.13v0.945h-0.113v-0.945h-8.128v0.945h-0.151v-0.945h-4.574v0.945h-0.151v-0.945
			h-0.151v-0.151h-0.945v-0.152h0.945v-2.23h-0.945v-0.113h0.945v-8.128h-0.945v-0.151h0.945v-2.23h-0.945v-0.151h0.945v-8.128
			h-0.945v-0.113h0.945v-2.23h-0.945v-0.151h0.945v-0.151h0.151v-0.945h0.151v0.945h4.574v-0.945h0.151v0.945h8.128v-0.945h0.113
			v0.945h0.189v0.151h0.945v0.151h-0.945v2.23h0.945v0.113h-0.945v0.189H93.13v0.945h-0.113v-0.945H85.04v7.788h7.977V55.85h0.113
			v0.945h0.189v0.151h0.945v0.151h-0.945v2.23h0.945v0.151h-0.945v0.151H93.13v0.944h-0.113v-0.944H85.04v7.787h7.977v-0.945h0.113
			v0.945h0.189v0.189h0.945v0.113h-0.945v2.23h0.945v0.152H93.319z M84.737,46.626h-4.423v2.079h4.272v-0.189h0.151V46.626z
			 M84.586,48.818h-4.272v8.128h4.272V48.818z M84.737,57.249h-0.151v-0.151h-4.272v2.23h4.272v-0.189h0.151V57.249z M84.586,59.479
			h-4.272v8.128h4.272V59.479z M84.737,67.91h-0.151v-0.189h-4.272V69.8h4.423V67.91z M92.828,46.626h-7.939v1.89h7.939V46.626z
			 M92.828,57.249h-7.939v1.89h7.939V57.249z M92.828,67.91h-7.939v1.89h7.939V67.91z"/>
		<path fill="#BCBEC0" d="M115.131,67.532l-0.113,0.113l0.416,1.134l-0.113,0.038l-0.454-1.096c-0.454,0.341-0.87,0.604-1.324,0.869
			v1.248h-0.113v-1.171c-1.928,1.097-3.894,1.587-6.313,1.587v0.945h-0.152v-0.945c-6.578-0.038-11.946-5.406-11.984-11.984h-0.945
			v-0.113h0.945c0.038-6.578,5.406-11.946,11.984-11.984v-0.945h0.152v0.945c2.419,0,4.385,0.491,6.313,1.587v-1.096h0.113v1.172
			c0.454,0.265,0.87,0.53,1.324,0.87l0.454-1.096l0.113,0.038l-0.416,1.134l0.113,0.113h0.908v0.152h-0.945l-0.038,0.038
			c0.265,0.227,0.529,0.491,0.756,0.756l-0.076,0.075c-0.227-0.227-0.454-0.454-0.719-0.681l-0.454,1.096
			c0.227,0.151,0.454,0.341,0.681,0.492l-0.076,0.114c-0.188-0.152-0.415-0.303-0.642-0.455l-0.757,2.004h0.908v0.114h-0.983
			l-0.151,0.416v0.755h-0.113v-0.832h-0.038l-0.378,0.945l-0.113-0.038l0.416-1.096l-0.076-0.151h-0.945v-0.114h0.87
			c-0.87-1.512-2.117-2.57-3.667-3.1c1.398,0.832,2.343,2.344,2.343,4.083c0,2.23-1.587,4.159-3.667,4.688h7.258v0.113h-7.258
			c2.079,0.529,3.667,2.419,3.667,4.65c0,1.776-0.983,3.327-2.419,4.158c1.625-0.491,2.835-1.587,3.743-3.137h-0.87v-0.113h0.945
			l0.076-0.152l-0.416-1.096l0.113-0.038l0.378,0.945h0.038v-0.794h0.113v0.718l0.151,0.417h0.983v0.113h-0.908l0.757,2.003
			c0.227-0.151,0.416-0.341,0.642-0.491l0.114,0.113c-0.227,0.189-0.492,0.341-0.719,0.492l0.454,1.172
			c0.227-0.189,0.416-0.416,0.643-0.643l0.114,0.076c-0.227,0.227-0.454,0.454-0.718,0.681l0.038,0.038h0.945v0.151H115.131z
			 M104.433,48.818c-3.705,0-6.994,2.344-8.355,5.632c-0.454,1.135-0.605,2.42-0.605,3.706h4.726c0-4.121,1.663-8.128,4.876-9.3
			C104.849,48.856,104.66,48.818,104.433,48.818z M100.199,58.27h-4.726c0,1.286,0.151,2.57,0.605,3.705
			c1.361,3.289,4.65,5.633,8.355,5.633c0.227,0,0.416-0.038,0.643-0.038C101.862,66.397,100.199,62.39,100.199,58.27z
			 M106.966,46.626c-4.499,0.038-8.43,2.646-10.32,6.427c1.663-2.608,4.536-4.348,7.788-4.348c0.34,0,0.643,0,0.983,0.038
			c0.491-0.151,1.021-0.227,1.55-0.227V46.626z M106.966,67.91c-0.529,0-1.059-0.075-1.55-0.227
			c-0.34,0.038-0.643,0.038-0.983,0.038c-3.251,0-6.125-1.777-7.788-4.385c1.89,3.78,5.822,6.427,10.32,6.464V67.91z M102.24,53.468
			c0-0.264,0.038-0.529,0.076-0.794c-0.605,0.832-1.134,1.739-1.398,2.722c-0.227,0.87-0.265,1.814-0.265,2.76h5.217
			C103.79,57.627,102.24,55.699,102.24,53.468z M100.653,58.27c0,0.945,0.038,1.89,0.265,2.759c0.264,0.983,0.793,1.891,1.398,2.722
			c-0.038-0.265-0.076-0.567-0.076-0.831c0-2.231,1.55-4.121,3.629-4.65H100.653z M101.182,54.3c0.303-0.719,0.756-1.361,1.21-1.966
			c0.151-0.567,0.378-1.134,0.718-1.588C102.24,51.654,101.598,52.901,101.182,54.3z M102.392,64.092
			c-0.454-0.605-0.907-1.248-1.21-1.966c0.416,1.399,1.059,2.647,1.928,3.554C102.77,65.226,102.542,64.658,102.392,64.092z
			 M106.966,53.543h-1.096v-0.113h1.096v-4.196c-1.776,0.566-3.327,1.739-4.46,3.175c-0.076,0.341-0.114,0.68-0.114,1.059
			c0,2.533,2.042,4.65,4.574,4.688V53.543z M106.966,62.995h-1.096v-0.113h1.096V58.27c-2.533,0.038-4.574,2.117-4.574,4.65
			c0,0.378,0.038,0.755,0.114,1.096c1.134,1.437,2.684,2.608,4.46,3.175V62.995z M106.399,49.045
			c-0.87,0.113-1.663,0.378-2.344,0.87c-0.643,0.566-1.172,1.285-1.437,2.117c1.097-1.323,2.533-2.306,4.197-2.873
			C106.664,49.121,106.55,49.083,106.399,49.045z M102.618,64.394c0.265,0.832,0.794,1.55,1.437,2.117
			c0.681,0.492,1.474,0.756,2.344,0.87c0.151-0.038,0.265-0.076,0.416-0.114C105.151,66.7,103.715,65.717,102.618,64.394z
			 M113.431,49.045h-1.135v-0.152h1.135v-0.604c-1.702-1.021-3.705-1.663-6.313-1.663v1.89c0.604,0,1.209,0.114,1.738,0.227
			c0.265-0.038,0.529-0.038,0.794-0.038c1.361,0,2.646,0.378,3.781,0.945V49.045z M108.818,49.196
			c-0.34-0.076-0.68-0.113-1.021-0.151c-0.151,0.038-0.303,0.075-0.454,0.113c0.68,0.227,1.323,0.529,1.928,0.908l-0.038,0.113
			c-0.642-0.416-1.361-0.718-2.116-0.945v4.196h1.096v0.113h-1.096v4.613c2.532-0.038,4.574-2.155,4.574-4.688
			C111.691,51.54,110.52,49.915,108.818,49.196z M107.118,58.27v4.612h1.096v0.113h-1.096v4.196
			c0.755-0.227,1.474-0.529,2.116-0.944l0.038,0.113c-0.605,0.378-1.248,0.68-1.928,0.907c0.151,0.038,0.302,0.076,0.454,0.114
			c0.34-0.038,0.642-0.038,0.945-0.114c1.702-0.681,2.949-2.382,2.949-4.347C111.691,60.387,109.65,58.307,107.118,58.27z
			 M113.431,67.532h-1.135v-0.151h1.135v-0.605c-1.172,0.605-2.419,0.945-3.781,0.945c-0.265,0-0.529,0.038-0.756,0
			c-0.567,0.114-1.134,0.189-1.776,0.189v1.89c2.608,0,4.611-0.643,6.313-1.664V67.532z M113.431,49.801
			c-1.135-0.604-2.419-0.982-3.781-0.982c-0.113,0-0.227,0.038-0.34,0.038c1.89,0.567,3.327,1.739,4.121,3.063V49.801z
			 M113.431,64.507c-0.794,1.323-2.155,2.533-4.083,3.1h0.302c1.361,0,2.608-0.416,3.781-1.021V64.507z M113.543,48.365v0.528h0.832
			C114.111,48.705,113.809,48.516,113.543,48.365z M113.543,49.045v0.68c0.227,0.114,0.454,0.227,0.643,0.341l0.378-1.021H113.543z
			 M113.543,49.877v1.814l0.567-1.475C113.922,50.104,113.733,49.991,113.543,49.877z M113.543,64.734v1.776
			c0.189-0.113,0.378-0.189,0.567-0.302L113.543,64.734z M114.187,66.322c-0.189,0.113-0.417,0.265-0.643,0.378v0.681h1.021
			L114.187,66.322z M113.543,67.532v0.53c0.265-0.152,0.567-0.341,0.832-0.53H113.543z"/>
		<path fill="#BCBEC0" d="M134.298,48.818v0.189h-0.189v0.945h-0.113v-0.945H128.4v20.943h0.945v0.152H128.4v0.151h-0.188v0.945
			h-0.152v-0.945h-4.574v0.945h-0.151v-0.945h-0.151v-0.151h-0.945v-0.152h0.945V49.008h-5.595v0.945h-0.151v-0.945h-0.151v-0.189
			h-0.945v-0.113h0.945v-2.23h-0.945v-0.151h0.945v-0.151h0.151v-0.945h0.151v0.945h5.747v-0.945h0.151v0.945h4.574v-0.945h0.152
			v0.945h5.784v-0.945h0.113v0.945h0.189v0.151h0.945v0.151h-0.945v2.23h0.945v0.113H134.298z M123.335,46.626h-5.595v1.89h5.595
			V46.626z M128.06,46.626h-4.574v1.89h0.189v0.189h4.234v-0.189h0.151V46.626z M127.909,48.818h-4.234V69.8h4.234V48.818z
			 M133.807,46.626h-5.595v1.89h5.595V46.626z"/>
		<path fill="#BCBEC0" d="M157.737,58.27c-0.038,6.578-5.369,11.946-11.947,11.984v0.945h-0.151v-0.945
			c-3.289,0-6.238-1.323-8.393-3.478l-0.718,0.718l-0.076-0.113l0.68-0.681c-2.154-2.155-3.478-5.141-3.478-8.43h-0.945v-0.113
			h0.945c0.038-6.578,5.406-11.946,11.984-11.984v-0.945h0.151v0.945c3.289,0,6.238,1.323,8.393,3.478l0.68-0.718l0.113,0.113
			l-0.718,0.68c2.155,2.155,3.479,5.142,3.479,8.431h0.982v0.113H157.737z M145.639,46.626c-6.351,0-11.492,5.179-11.492,11.53
			h0.643c0.416-1.966,1.398-3.706,2.835-4.99c0.567-1.398,1.702-2.495,3.1-3.063c1.285-1.398,2.986-2.419,4.915-2.835V46.626z
			 M134.563,60.047c0-0.604,0.076-1.21,0.189-1.777h-0.604c0,1.361,0.226,2.685,0.68,3.894
			C134.676,61.483,134.563,60.765,134.563,60.047z M137.7,58.27h-2.797c-0.113,0.567-0.189,1.173-0.189,1.777
			c0,1.171,0.227,2.306,0.643,3.327c0.567,1.096,1.248,2.117,2.117,2.986l3.327-3.365C139.439,61.596,138.305,59.933,137.7,58.27z
			 M137.171,55.51c0-0.718,0.113-1.399,0.34-2.042c-1.286,1.248-2.23,2.874-2.608,4.688h2.759
			C137.36,57.287,137.171,56.379,137.171,55.51z M145.639,66.247c-1.702-0.644-3.327-1.74-4.726-3.139l-3.327,3.327
			c0.87,0.87,1.853,1.55,2.949,2.117c1.021,0.417,2.155,0.644,3.327,0.644c0.605,0,1.21-0.038,1.777-0.151V66.247z M138.381,52.75
			c-0.454,0.793-0.719,1.739-0.719,2.759c0,0.869,0.151,1.777,0.492,2.646h0.265c-0.114-0.567-0.152-1.172-0.152-1.777
			c0-1.512,0.378-2.948,1.021-4.233C138.986,52.334,138.683,52.523,138.381,52.75z M138.457,58.27h-0.265
			c0.189,0.491,0.416,0.983,0.681,1.437C138.683,59.252,138.57,58.761,138.457,58.27z M145.639,51.087
			c-0.567-0.113-1.172-0.189-1.777-0.189c-1.588,0-3.062,0.416-4.348,1.134c-0.718,1.285-1.096,2.76-1.096,4.347
			c0,0.605,0.038,1.21,0.151,1.777h6.994l-0.718-0.756l0.076-0.076l0.718,0.681V51.087z M138.57,52.41
			c0.265-0.189,0.529-0.34,0.832-0.491c0.151-0.303,0.34-0.605,0.53-0.87C139.401,51.427,138.948,51.881,138.57,52.41z
			 M138.607,58.27c0.189,0.832,0.454,1.663,0.87,2.419c0.491,0.719,1.058,1.399,1.663,2.003l2.76-2.76l-0.643-0.643l0.113-0.113
			l0.643,0.642l1.513-1.55H138.607z M145.639,50.633c-0.87-0.34-1.777-0.529-2.609-0.529c-1.021,0-1.966,0.303-2.759,0.757
			c-0.228,0.302-0.454,0.604-0.644,0.945c1.286-0.643,2.722-1.021,4.234-1.021c0.605,0,1.21,0.038,1.777,0.152V50.633z
			 M145.639,47.42c-1.777,0.378-3.365,1.323-4.612,2.571c0.643-0.227,1.286-0.341,2.003-0.341c0.87,0,1.739,0.151,2.609,0.454V47.42
			z M145.639,58.383l-1.55,1.549l0.605,0.567l-0.114,0.113l-0.567-0.604l-2.759,2.759c0.605,0.605,1.248,1.134,1.928,1.626
			c0.755,0.416,1.587,0.718,2.457,0.907V58.383z M145.639,69.157c-0.567,0.113-1.172,0.189-1.777,0.189
			c-0.718,0-1.399-0.076-2.079-0.227c1.209,0.454,2.495,0.68,3.856,0.68V69.157z M145.639,65.453
			c-0.529-0.114-1.021-0.265-1.512-0.454c0.492,0.302,1.021,0.529,1.512,0.718V65.453z M145.79,46.626v0.642
			c0.567-0.113,1.173-0.188,1.777-0.188c0.718,0,1.399,0.076,2.08,0.227C148.437,46.853,147.151,46.626,145.79,46.626z
			 M150.894,47.874c-1.021-0.416-2.155-0.643-3.327-0.643c-0.604,0-1.209,0.037-1.777,0.151v2.797
			c1.664,0.605,3.327,1.74,4.726,3.138l3.327-3.326C152.973,49.121,151.99,48.44,150.894,47.874z M145.79,50.671v0.303
			c0.567,0.113,1.097,0.265,1.588,0.491C146.849,51.163,146.319,50.898,145.79,50.671z M148.285,52.07
			c-0.755-0.416-1.587-0.756-2.495-0.945v6.918l1.513-1.513l-0.567-0.605l0.076-0.113l0.604,0.604l2.76-2.76
			C149.571,53.053,148.928,52.523,148.285,52.07z M152.822,58.27h-6.918l0.719,0.718l-0.114,0.114l-0.719-0.757v6.994
			c0.567,0.114,1.173,0.189,1.777,0.189c1.588,0,3.062-0.416,4.348-1.134c0.718-1.286,1.097-2.76,1.097-4.347
			C153.011,59.442,152.935,58.836,152.822,58.27z M156.64,58.27c-0.416,1.928-1.398,3.629-2.797,4.914
			c-0.604,1.399-1.739,2.534-3.138,3.138c-1.285,1.399-2.986,2.42-4.915,2.835V69.8c6.351,0,11.493-5.18,11.493-11.53H156.64z
			 M147.567,65.641c-0.604,0-1.209-0.038-1.777-0.151v0.302c0.908,0.34,1.815,0.529,2.685,0.529c0.983,0,1.853-0.265,2.646-0.719
			c0.227-0.302,0.454-0.642,0.643-0.983C150.478,65.264,149.079,65.641,147.567,65.641z M148.475,66.775
			c-0.87,0-1.777-0.189-2.685-0.491v2.722c1.777-0.378,3.327-1.285,4.575-2.533C149.759,66.7,149.155,66.775,148.475,66.775z
			 M151.839,55.586c-0.454-0.643-1.021-1.248-1.588-1.815l-2.76,2.76l0.643,0.605l-0.076,0.113l-0.643-0.643l-1.55,1.55h6.956
			C152.633,57.249,152.293,56.379,151.839,55.586z M156.073,53.053c-0.567-1.097-1.248-2.117-2.117-2.986l-3.364,3.364
			c1.398,1.399,2.57,3.062,3.213,4.726h2.722c0.114-0.567,0.151-1.172,0.151-1.777C156.678,55.208,156.489,54.073,156.073,53.053z
			 M151.99,64.507c-0.151,0.303-0.34,0.604-0.529,0.87c0.529-0.378,1.021-0.87,1.399-1.399
			C152.595,64.167,152.293,64.356,151.99,64.507z M153.351,58.27h-0.378c0.113,0.567,0.189,1.173,0.189,1.777
			c0,1.512-0.378,2.948-1.021,4.234c0.34-0.189,0.643-0.417,0.945-0.643c0.492-0.833,0.794-1.815,0.794-2.874
			C153.88,59.971,153.691,59.102,153.351,58.27z M152.406,56.417c0.227,0.529,0.416,1.135,0.529,1.739h0.379
			C153.086,57.589,152.747,56.984,152.406,56.417z M153.88,58.27c0.303,0.832,0.492,1.701,0.492,2.495
			c0,0.719-0.151,1.474-0.378,2.117c1.248-1.248,2.117-2.835,2.495-4.612H153.88z M156.603,54.263
			c0.151,0.68,0.227,1.399,0.227,2.116c0,0.605-0.038,1.21-0.151,1.777h0.605C157.283,56.757,157.057,55.472,156.603,54.263z"/>
		<path fill="#BCBEC0" d="M178.869,70.103l0.113,0.151h-0.189l0.529,0.907l-0.113,0.076l-0.605-0.983h-5.292l0.529,0.907
			l-0.113,0.076l-0.567-0.983h-0.227l-0.076-0.151h-1.134v-0.152h1.059l-5.406-9.3h-2.042v9.3h0.945v0.152h-0.945v0.151h-0.152
			v0.945h-0.151v-0.945h-4.574v0.945h-0.152v-0.945h-0.151v-0.151h-0.945v-0.152h0.945v-9.3h-0.945V60.5h0.945v-2.23h-0.945v-0.113
			h0.945v-9.338h-0.945v-0.113h0.945v-2.23h-0.945v-0.151h0.945v-0.151h0.151v-0.945h0.152v0.945h4.574v-0.945h0.151v0.945h4.575
			v-0.945h0.151v0.945c0.529,0,0.983,0.038,1.474,0.151h1.285v0.151h-0.718c2.987,0.907,5.142,3.667,5.179,6.956h0.983v0.113h-0.983
			c-0.038,2.874-1.663,5.293-4.045,6.503l0.265,0.453h0.756v0.151h-0.68l5.368,9.3h1.134v0.152H178.869z M165.032,46.626h-4.423
			v2.079h4.272v-0.189h0.151V46.626z M164.881,57.514c-0.152-0.114-0.303-0.189-0.454-0.303l0.113-0.113
			c0.113,0.076,0.227,0.189,0.34,0.264v-3.818h-0.945v-0.113h0.945V49.65c-0.076,0.038-0.189,0.076-0.265,0.151l-0.075-0.113
			c0.113-0.076,0.227-0.151,0.34-0.227v-0.643h-4.272v9.338h4.272V57.514z M164.881,58.27h-4.272v2.23h4.272V58.27z M164.881,60.651
			h-4.272V69.8h4.272V60.651z M169.758,46.626h-1.475c-0.756,0.151-1.475,0.454-2.118,0.869l-0.075-0.113
			c0.529-0.302,1.059-0.567,1.626-0.756h-2.534v1.89h2.269c0.454,0,0.87,0.076,1.286,0.189h1.021V46.626z M169.758,49.65
			c-0.68-0.416-1.475-0.642-2.307-0.642h-1.209c-0.303,0.076-0.643,0.188-0.907,0.34v4.083h2.042v-1.134h0.151v1.134h2.231V49.65z
			 M165.335,49.008v0.188c0.151-0.076,0.302-0.113,0.454-0.188H165.335z M169.758,53.543h-2.231v1.135h-0.151v-1.135h-2.042v4.083
			c0.227,0.114,0.454,0.227,0.681,0.302l-0.492-0.87l0.113-0.076l0.567,0.984h0.038h1.209c0.832,0,1.626-0.227,2.307-0.644V53.543z
			 M165.864,58.005c-0.189-0.076-0.34-0.151-0.529-0.227v0.378h0.604L165.864,58.005z M167.074,60.123
			c-0.34-0.152-0.681-0.341-0.983-0.53l0.075-0.113c0.265,0.151,0.53,0.302,0.794,0.415l-0.944-1.625h-0.681v2.23h1.965
			L167.074,60.123z M169.758,58.27h-1.021c-0.417,0.114-0.833,0.189-1.286,0.189h-0.794l1.021,1.701
			c0.643,0.227,1.361,0.34,2.08,0.34V58.27z M167.754,60.348l0.113,0.152h0.529C168.17,60.462,167.943,60.425,167.754,60.348z
			 M172.857,60.651h-2.948v1.097h-0.151v-1.097h-1.815l5.292,9.149h4.915L172.857,60.651z M169.758,48.818h-0.567
			c0.189,0.075,0.378,0.151,0.567,0.265V48.818z M169.758,57.892c-0.189,0.113-0.378,0.189-0.567,0.265h0.567V57.892z
			 M169.909,46.626v2.079h0.793v0.113h-0.793v0.34c1.474,0.832,2.457,2.458,2.495,4.272h4.272
			C176.638,49.688,173.652,46.664,169.909,46.626z M169.909,49.726v3.705h2.041C171.95,51.843,171.119,50.52,169.909,49.726z
			 M172.404,53.543c-0.038,1.815-1.021,3.44-2.495,4.272v0.34h0.793v0.113h-0.793v2.23c0.907,0,1.777-0.189,2.571-0.529
			l-0.077-0.113l0.151-0.076l-0.491-0.87l0.113-0.076l0.529,0.87c2.382-1.21,3.931-3.402,3.97-6.163H172.404z M169.909,53.543v3.706
			c1.21-0.794,2.041-2.155,2.041-3.706H169.909z M172.555,60.123c-0.416,0.188-0.832,0.302-1.285,0.377h1.512L172.555,60.123z"/>
		<path fill="#BCBEC0" d="M191.685,70.026h-3.516l-9.527-23.627h5.104l7.448,18.486l7.41-18.486h2.57L191.685,70.026z"/>
		<path fill="#BCBEC0" d="M215.085,70.026l-2.684-6.616h-9.527l-2.646,6.616h-2.57l9.526-23.627h3.516l9.489,23.627H215.085z
			 M207.638,51.54l-3.818,9.489h7.636L207.638,51.54z"/>
		<path fill="#BCBEC0" d="M230.623,70.026c-5.218,0-9.452-4.234-9.452-9.451V46.399h4.726v14.176c0,3.252,2.646,5.897,5.898,5.897
			c3.25,0,5.897-2.646,5.897-5.897V46.399h2.381v14.176C240.073,65.792,235.839,70.026,230.623,70.026z"/>
		<path fill="#BCBEC0" d="M244.156,70.026V46.399h4.726v21.246h8.278v2.381H244.156z"/>
		<path fill="#BCBEC0" d="M266.233,48.743v21.284h-4.726V48.743h-5.897v-2.344h16.559v2.344H266.233z"/>
	</g>
</g>
<g id="reference_number" display="none">
	<g display="inline">
		<path fill="#808285" d="M505.922,51.906h-2.375c0.426-1.906,1.241-3.372,2.447-4.398s2.63-1.54,4.271-1.54
			c1.194,0,2.31,0.273,3.343,0.82c1.035,0.546,1.835,1.283,2.401,2.209s0.85,1.894,0.85,2.903c0,1.978-0.979,3.544-2.938,4.699
			c1.104,0.448,2.011,1.104,2.719,1.968c1,1.218,1.5,2.582,1.5,4.092c0,1.302-0.344,2.543-1.031,3.725s-1.625,2.095-2.813,2.741
			s-2.516,0.968-3.984,0.968c-1.979,0-3.63-0.571-4.953-1.715c-1.323-1.143-2.188-2.821-2.594-5.035h2.25
			c0.396,1.49,0.962,2.568,1.7,3.234c0.947,0.844,2.153,1.266,3.62,1.266c1.664,0,3.001-0.498,4.01-1.495s1.514-2.165,1.514-3.505
			c0-0.893-0.253-1.729-0.757-2.507s-1.18-1.366-2.025-1.76c-0.848-0.395-2.16-0.639-3.937-0.732v-2.125
			c1.052,0,2.011-0.184,2.875-0.552s1.492-0.838,1.883-1.408s0.586-1.193,0.586-1.867c0-0.996-0.396-1.857-1.188-2.583
			c-0.793-0.726-1.795-1.089-3.008-1.089c-0.984,0-1.833,0.28-2.548,0.84S506.419,50.567,505.922,51.906z"/>
		<path fill="#808285" d="M523.125,53.75h-2.219c0.063-2.271,0.818-4.135,2.269-5.594c1.45-1.458,3.24-2.188,5.371-2.188
			c2.11,0,3.817,0.683,5.122,2.049s1.957,2.976,1.957,4.832c0,1.304-0.313,2.526-0.938,3.667s-1.84,2.687-3.643,4.636l-5.73,6.191
			h10.624v2.188h-15.594l8.761-9.465c1.776-1.909,2.933-3.326,3.468-4.249s0.803-1.896,0.803-2.919c0-1.294-0.479-2.408-1.437-3.341
			c-0.958-0.934-2.131-1.401-3.518-1.401c-1.46,0-2.674,0.49-3.643,1.469C523.811,50.604,523.259,51.979,523.125,53.75z"/>
		<path fill="#808285" d="M541.391,51.906h-2.375c0.426-1.906,1.241-3.372,2.447-4.398s2.63-1.54,4.271-1.54
			c1.194,0,2.31,0.273,3.343,0.82c1.035,0.546,1.835,1.283,2.401,2.209s0.85,1.894,0.85,2.903c0,1.978-0.979,3.544-2.938,4.699
			c1.104,0.448,2.011,1.104,2.719,1.968c1,1.218,1.5,2.582,1.5,4.092c0,1.302-0.344,2.543-1.031,3.725s-1.625,2.095-2.813,2.741
			s-2.516,0.968-3.984,0.968c-1.979,0-3.63-0.571-4.953-1.715c-1.323-1.143-2.188-2.821-2.594-5.035h2.25
			c0.396,1.49,0.962,2.568,1.7,3.234c0.947,0.844,2.153,1.266,3.62,1.266c1.664,0,3.001-0.498,4.01-1.495s1.514-2.165,1.514-3.505
			c0-0.893-0.253-1.729-0.757-2.507s-1.18-1.366-2.025-1.76c-0.848-0.395-2.16-0.639-3.937-0.732v-2.125
			c1.052,0,2.011-0.184,2.875-0.552s1.492-0.838,1.883-1.408s0.586-1.193,0.586-1.867c0-0.996-0.396-1.857-1.188-2.583
			c-0.793-0.726-1.795-1.089-3.008-1.089c-0.984,0-1.833,0.28-2.548,0.84S541.888,50.567,541.391,51.906z"/>
		<path fill="#808285" d="M561,70.094l-1.903-1.201l6.242-9.42c-0.834,0.269-1.617,0.402-2.35,0.402
			c-1.833,0-3.389-0.658-4.666-1.974c-1.278-1.316-1.917-2.937-1.917-4.862c0-1.321,0.308-2.513,0.922-3.574
			c0.614-1.061,1.487-1.909,2.617-2.544s2.341-0.952,3.633-0.952c1.271,0,2.445,0.308,3.523,0.922
			c1.078,0.615,1.925,1.474,2.539,2.578c0.614,1.104,0.922,2.281,0.922,3.531c0,0.948-0.19,1.94-0.569,2.977
			c-0.38,1.037-1.059,2.284-2.035,3.742L561,70.094z M563.515,57.844c1.352,0,2.488-0.47,3.412-1.409s1.386-2.074,1.386-3.403
			s-0.471-2.463-1.412-3.403s-2.083-1.41-3.424-1.41c-1.331,0-2.468,0.47-3.409,1.41s-1.411,2.074-1.411,3.403
			s0.474,2.464,1.423,3.403C561.027,57.374,562.173,57.844,563.515,57.844z"/>
	</g>
</g>
<g id="art">
	<g>
		<path d="M415.277,318.103c0.73-0.011,0.934,0.507,1.44,0.72c-0.45,0.457-0.026,0.603,0,1.2
			C415.901,319.719,415.61,318.89,415.277,318.103z"/>
		<path d="M417.917,320.503c0.054,1.028-0.798,0.979-0.239,1.92C416.782,322.183,416.733,320.376,417.917,320.503z"/>
		<path d="M430.157,348.583c0.578-0.098,0.521,0.438,1.2,0.24c0,0.4,0,0.8,0,1.2C430.584,349.916,429.964,349.656,430.157,348.583z"
			/>
		<path d="M471.678,433.303c0.541,0.179,0.094,1.347,0.239,1.92C470.724,435.046,471.421,433.926,471.678,433.303z"/>
		<path d="M469.757,436.423c-0.139,2.068-2.414,1.625-3.84,0.96C467.054,437.525,468.401,436.753,469.757,436.423z"/>
		<path d="M469.277,438.583c0.751-0.111,1.071,0.209,0.96,0.96c-0.557,0.076-0.922-0.039-1.2-0.24
			C469.164,439.109,469.288,438.913,469.277,438.583z"/>
		<path d="M440.718,495.943c0.077-0.563,1.047-0.233,1.199-0.721c0.896,0.533-0.608,0.644-0.239,1.44
			C440.907,496.873,441.18,496.04,440.718,495.943z"/>
		<path d="M190.877,545.863c0.803,0.316,1.213,1.026,1.2,2.159C191.405,547.575,191.152,546.708,190.877,545.863z"/>
		<path d="M194.958,571.543c3.078,0.843,6.998,2.922,11.04,3.6C201.634,575.586,197.692,573.528,194.958,571.543z"/>
		<path d="M324.797,186.583c1.233,1.013,2.823-0.361,4.561,1.2c2.892,2.599,5.347,6.888,8.16,10.56
			c13.597,17.746,27.277,34.717,41.279,51.84c16.602,20.301,33.649,41.062,47.521,64.08c15.923,26.424,29.052,54.295,43.439,82.32
			c4.924,9.59,10.011,19.011,13.921,28.8c2.806,5.993,4.773,12.826,5.04,21.36c-1.783-0.217-2.313-1.688-3.36-2.641
			c-0.431,0.77-0.479,1.921-1.92,1.681c1.246,1.394,2.984,2.295,4.319,3.6c0.519,4.999-3.006,5.953-5.039,8.4
			c0.187,0.531,1.16-0.792,1.68,0c-0.176,1.181-0.447,2.446-1.44,3.359c-2.604,9.107-12.275,16.461-18.96,23.28
			c-19.643,20.041-41.704,37.446-70.319,47.521c-7.261,2.556-14.758,5.445-22.801,7.199c3.361-4.555,11.16-5.159,17.04-7.439
			c36.553-14.174,66.631-36.999,88.08-66.96c-3.861,2.697-7.15,6.776-10.8,10.319c-3.685,3.578-7.86,6.694-11.28,10.32
			c-2.671,1.89-6.153,4.245-7.68,6.48c-0.747,0.213-1.184,0.735-1.92,0.96c0.103,0.457,0.686,0.434,0.479,1.199
			c-1.174-0.44-1.147,1.554-1.68,0.96c-1.35-0.478,1.382-0.576,0.96-1.68c-1.161,0.361-2.967,2.151-4.32,3.12
			c0.004,0.716,1.779-0.339,1.44,0.72c-0.779,0.021-1.477,0.124-1.92,0.48c-0.428-0.176-0.035-0.437,0-0.72
			c-0.56,0.08-1.034,0.245-1.2,0.72c0.753-0.039,0.979,0.451,0.96,1.439c-0.706,0.017-0.908,0.661-1.92,0.24
			c-0.701,1.139-1.023,2.656-3.12,2.4c0.074,0.325,0.602,0.199,0.96,0.24c-0.035,0.524-0.604,0.515-1.2,0.479
			c-0.228,1.771-2.76,1.239-2.88,3.12c-1.631-0.785-1.163,1.666-2.88,0.72c0,0.4,0,0.8,0,1.2c-4.771,1.248-6.657,5.447-11.52,6.24
			c-0.319,0.507,0.118,0.709-0.24,1.439c-0.779-0.922-1.598-0.14-1.92,1.2c-1.856-0.655-2.212,1.198-3.12,0.72
			c-0.719,0.158,0.229,0.514,0,0.96c-0.976-0.426-2.026,0.317-2.4,1.2c-0.281-0.038-0.202-0.438-0.239-0.72
			c-0.596,0.765-1.253,1.468-2.16,1.92c0.102-0.502-0.165-0.636-0.24-0.96c-0.521-0.04-0.108,0.852-0.24,1.2
			c-2.264-0.375-4.214,2.902-6.96,2.64c-0.677,1.963-4.082,1.198-4.56,3.36c-0.252-0.868-2.369,0.158-1.44,0.24
			c-2.304,0.336-3.991,1.288-5.76,2.159c-0.03-0.43,0.294-0.506,0.24-0.96c-0.97,0.631-2.451,0.75-2.641,2.16
			c-11.965,5.417-22.879,12.983-36.479,17.04c-1.849,0.552-4.751,0.3-7.44,0.48c-7.799,0.522-14.951,2.621-22.56,3.84
			c0.33,0.619,1.471,0.053,1.92,0c0.259,0.613-1.033,0.84-0.24,1.2c-0.235,0.735-0.641-0.276-0.96-0.24
			c-0.304,0.416-0.812,0.629-0.72,1.439c-0.776-0.862-2.221,1.132-3.84,0.96c-0.493,0.067-0.479,0.642-0.721,0.961
			c-4.446,0.061-8.966,3.951-12.239,3.84c-0.675,0.045-0.657,0.783-1.2,0.96c-0.766,0.205-0.742-0.378-1.2-0.48
			c-0.498,0.062-0.065,1.055-0.48,1.2c-3.103,0.1-4.391,1.744-8.88,1.68c-0.585,1.574-3.816,0.505-4.32,2.16
			c-0.771,0.211-0.498-0.622-0.96-0.72c-0.885,0.045-0.468,0.783-0.72,0.96c-5.951,0.471-11.086,3.081-16.32,2.4
			c-0.79,0.41-2.08,0.319-2.4,1.199c-3.176-0.796-8.789,1.401-11.28,0.721c-0.811-0.092-1.024,0.416-1.44,0.72
			c-2.908-0.53-6.534-0.54-9.6,0.24c-0.771,0.211-0.329-0.791-0.96-0.721c-8.92,1.694-20.923-0.437-28.56-0.239
			c-0.982-0.393-0.327-0.938-0.96-1.681c-1.813,0.629-5.503-0.031-6.96,0.24c3.36,2.789,8.956,3.462,14.4,4.08
			c3.67,0.417,7.681,0.718,11.52,0.96c7.129,0.45,14.397,0.074,20.4-0.24c31.055-1.625,58.374-11.888,79.44-23.279
			c2.619,0.192,6.371-1.588,7.92,0.479c-19.983,10.126-41.705,19.952-68.4,24c-19.433,2.946-42.981,2.73-64.32,1.2
			c0.179-0.541,1.346-0.094,1.92-0.24c-2.433-1.566-5.634-2.365-6.96-5.04c-0.25-1.129,0.553-1.207,0.96-1.68
			c-10.05,2.47-13.464-5.964-17.28-13.2c-1.871-3.549-4.978-8.206-5.04-9.84c-0.03-0.768,0.149-1.523,0.96-2.16
			c-0.335-0.846-2.742-1.975-1.68-2.64c-0.371-0.429-1.44-0.16-1.68-0.721c-4.691-35.112-8.298-71.705-11.52-108.479
			c-0.599-6.834-1.268-15.314-1.92-23.04c-2.958-35.028-2.991-69.946,0-105.36c1.353-16.016,2.325-32.148,3.84-48.479
			c0.195-2.103,0.779-4.563,1.92-6.24c1.064-0.253,2.813-0.426,3.84,0c1.721,5.319,0.421,17.138-0.24,24.96
			c-1.873,22.177-4.208,47.979-5.28,71.04c-0.24,5.167,0.005,10.669,0.24,15.84c0.312,6.865,1.078,14.146,1.2,19.92
			c0.045,2.146-0.507,4.918-0.24,7.44c0.674,6.352,0.873,12.834,1.2,18.96c0.115,2.149,0.34,4.2,0.48,6.479
			c0.163,2.653,0.404,6.119,0.96,8.16c0.513,11.161,1.714,15.948,2.4,27.36c0.335,0.17,0.963,5.092,1.2,6.72
			c0.484,3.329,0.161,6.791,1.2,9.6c-0.055,0.426,0.242,1.202-0.48,0.961c1.715,5.321,0.554,9.839,2.4,14.64
			c-1.166,1.127,0.762,3.995,0.24,6.72c0.244-0.156,0.248-0.552,0.72-0.479c-0.299,1.242-1.179,2.534,0.24,2.64
			c-0.875,2.09-0.179,5.015,0.72,6.72c0.132,0.532-0.458,0.342-0.48,0.721c1.785,4.73,0.829,11.295,2.64,15.119
			c-0.074,0.326-0.601,0.199-0.96,0.24c2.188,8.123,1.622,15.552,2.88,24.24c2.762-0.723,1.035-5.522,2.4-6.48
			c-0.603-0.677-0.167-2.393-1.2-2.64c0.587-0.933,0.69-2.35,1.44-3.12c0.937,0.743,2.902,0.458,2.88,2.16
			c-1.226,0.106-0.833-1.407-2.16-1.2c-0.677,0.615,0.934,0.973,0.72,1.92c-1.071,3.915,2.796,8.031,0.72,12.721
			c2.317,1.034,3.527,4.213,7.44,2.88c-1.313,2.804-5.254-0.779-6.48-0.96c-0.659,1.146,0.341,2.692,0.72,3.6
			c-0.89,0.323-1.475-1.72-2.64-1.92c0.644,0.782-0.018,2.038,0.24,3.12c0.395,1.658,2.489,4.507,3.36,6.72
			c0.481,1.221,0.403,2.9,2.16,2.88c0.276,0.284,0.271,0.849,0.24,1.44c1.903-0.235,3.529-0.539,4.56,0.479
			c18.292,1.848,37.377-1.412,54-2.64c0.577-0.303,1.452-0.309,1.92-0.72c0.637,0.002,1.371-0.091,1.68,0.239
			c8.243-1.507,17.142-3.207,24.24-4.319c4.489-1.275,9.983-2.653,14.88-4.08c2.558-0.745,4.865-1.556,7.44-1.44
			c-0.039-0.281-0.438-0.202-0.72-0.239c3.285-1.944,6.362-4.044,8.88-6.96c2.354-2.729,3.747-7.731,7.92-8.4
			c0.923-0.148,2.17,0.715,2.88-0.24c5.32,0.534,7.15,3.413,12,4.08c-0.179,0.739,0.659,0.461,0.48,1.2
			c7.477,3.704,18.026,1.032,23.52-3.12c4.996-3.776,6.264-9.499,8.88-14.88c0.717-1.474,1.773-3.646,2.88-4.8
			c5.658-5.905,15.403,1.187,24.24-1.2c7.94-2.145,15.799-7.383,23.04-12c14.008-8.933,27.804-19.047,39.84-29.76
			c6.187-5.507,12.194-11.165,17.04-17.761c0.718-0.401,1.142-1.099,1.68-1.68c-0.142-0.498-0.461-0.818-0.96-0.96
			c0.636-1.549,1.661-3.101,1.681-5.04c0.037-3.815-2.994-7.916-3.36-11.52c-0.972-0.332-0.759,0.521-1.439,0.479
			c-0.011-0.73,0.507-0.934,0.72-1.439c-1.896-3.625-4.414-6.626-5.76-10.801c-0.194,0.046-0.239,0.241-0.48,0.24
			c-0.932,0.108-0.426,1.654-0.96,2.16c-2.431-1.373-0.217-3.53,0-5.521c-0.682-0.041,0.29,1.57-0.72,1.2
			c-0.908-3.527-2.864-4.737-3.601-8.16c-0.359-0.279-0.587-0.692-1.199-0.72c0.609-1.374-0.722-3.874-2.16-4.56
			c1.324-1.322-1.734-3.27-0.96-4.8c-0.059-0.619-0.413,0.329-0.96,0c-0.223-1.458-0.078-3.283-1.44-3.601
			c-0.274-0.755,0.377-0.583,0.48-0.96c0.04-0.521-0.852-0.108-1.2-0.24c1.551-1.729-1.911-2.036-0.96-3.84
			c-2.258-0.429-1.266-4.971-3.601-5.52c-0.311-1.158-0.056-2.188-1.199-2.881c0.645-0.686-0.006-1.174,0.72-1.68
			c-0.203-0.517-1.053-0.387-1.44-0.72c-0.139-0.939,0.207-1.394,0.48-1.92c-0.639-0.661-0.841,0.176-1.44,0.24
			c-0.294-1.094,0.842-0.758,0.96-1.44c-0.68-0.52-1.345-1.055-1.2-2.4c-0.782-0.412-1.154,1.15-1.199,0
			c0.846-0.029,0.065-0.349,0.479-0.96c-1.645-2.147-1.532-6.106-3.6-7.2c-0.673-0.041,0.349,1.221-0.24,0.48
			c-1.222,0.342-0.552-1.208-0.72-1.92c0.722-0.242,0.425,0.535,0.479,0.96c0.575,0.095-0.133-1.093,0.721-0.72
			c-0.232-0.489-0.922-0.519-1.681-0.48c0.137-1.692-0.693-3.967-2.16-4.8c1.201-1.868-0.969-2.444-0.72-4.08
			c-0.203-0.623-1.053,0.462-1.439-0.24c-0.778-0.848,0.752-0.844,0.479-1.92c-0.521-0.884-0.534,0.718-1.2,0.48
			c-0.551-0.729,0.094-2.653-1.2-2.64c0.059-0.422,0.413-0.547,0.961-0.48c-0.95-0.052-1.569-0.297-2.16-1.2
			c-0.783-0.412-1.155,1.15-1.2,0c0.426-1.271,0.72-0.101,1.92-0.24c0.235-1.598-1.194-0.441-1.68-0.96
			c0.439-1.861-0.987-1.309-0.24-2.64c-0.3-0.356-1.405-1.133-1.68-0.72c-0.671-0.308,0.294-0.958,0.479-1.2
			c-0.039-0.281-0.438-0.203-0.72-0.24c0.44-0.279-0.126-1.566,0.96-1.2c-1.035-0.689-1.592-2.324-1.2-3.12
			c-0.3-0.411-1.224-0.478-1.68-0.96c0.737-0.637,0.607-1,0.239-2.16c-0.202-0.623-1.053,0.462-1.439-0.24
			c-0.597-0.284-0.241-1.519-0.96-1.68c0.175-0.545,0.722-0.718,1.2-0.96c-1.477-1.106-2.938-3.432-2.641-5.52
			c-0.453-0.266-0.841-0.599-1.439-0.72c-0.099-0.579,0.438-0.522,0.24-1.2c0.073-0.291-0.693-0.828-0.721-0.24
			c-0.75-2.21-2.01-3.91-2.64-6.24c-0.431-0.031-0.506,0.294-0.96,0.24c0.714-1.43-0.669-2.636-1.2-3.6
			c-0.624-0.144-0.863,0.096-0.72,0.72c-0.609-0.554-0.345-1.07-0.24-1.92c-0.523-0.043-0.764,0.196-0.72,0.72
			c-1.181-0.462-0.325-1.469-1.44-1.92c-0.719,0.158,0.229,0.513,0,0.96c-1.223-1.358-1.914-2.868-1.2-5.04
			c-0.124-0.686-0.354,0.387-0.479,0.48c-0.801-0.687-0.245-2.184-1.44-2.88c-0.325,0.075-0.199,0.601-0.239,0.96
			c-0.675-0.776-0.134-1.992-0.48-2.64c-0.175-0.595-0.723,0.792-1.2,0c-0.179-0.739,0.659-0.461,0.48-1.2
			c-0.776-0.296-0.184,0.777-0.96,0.48c-0.026-1.834-2.966-3.592-2.641-5.76c-2.661-2.939-4.623-6.577-6.479-10.32
			c-1.703-1.417-2.927-3.313-3.84-5.52c-16.543-22.652-34.431-45.618-52.801-67.2c-0.186-0.214-0.258-0.542-0.239-0.96
			c-2.571-1.962-3.258-4.37-5.761-6.24c0.09-1.058-1.037-2.521-2.399-2.88c-2.432-4.608-6.372-8.791-10.32-12.96
			c-0.719-2.351-3.275-4.501-1.92-7.44c1.7-1.128,4.402-1.252,5.76,0.24C327.184,186.809,326.038,186.558,324.797,186.583z
			 M330.077,194.503c0-0.4,0-0.8,0-1.2c-0.32,0-0.64,0-0.96,0C329.055,194.085,329.402,194.458,330.077,194.503z M170.478,251.143
			c0.584-0.136,1.234-0.206,1.2-0.96C170.857,250.083,170.31,250.255,170.478,251.143z M169.517,257.383
			c0.005,0.715-0.022,1.462,0.72,1.44c0.687-0.033,0.439-1.001,0.48-1.68C170.161,257.066,169.796,257.182,169.517,257.383z
			 M385.757,264.823c-0.52,0.041-0.108-0.851-0.239-1.2c-0.502-0.138-0.686-0.595-1.44-0.48
			C383.772,264.417,385.078,265.33,385.757,264.823z M398.478,278.983c-0.195-1.245-0.734-2.146-1.681-2.64
			C397.216,277.364,397.806,278.214,398.478,278.983z M165.197,348.823c0.566-1.229,1.172-3.288-0.24-4.08
			C164.215,345.612,164.259,348.227,165.197,348.823z M168.797,419.863c-0.216-0.665,0.493-2.254-0.48-2.16
			C168.467,418.97,168.175,419.252,168.797,419.863z M479.837,444.583c2.052-2.184-0.241-4.8-0.239-7.68
			c-0.869,0.171-1.292,0.788-2.16,0.96c-0.513-1.888-1.369-3.432-2.4-4.801C476.897,436.643,475.485,443.495,479.837,444.583z
			 M169.037,443.383c-0.131-1.795,0.462-4.922-0.96-6C168.333,439.975,168.136,441.666,169.037,443.383z M169.517,447.463
			c0.222-0.97,0.191-2.197-0.48-2.88C169.048,445.692,168.903,446.957,169.517,447.463z M473.837,454.423
			c2.464-2.336,5.042-4.558,7.44-6.96C478.254,449.08,475.194,451.939,473.837,454.423z M456.317,470.263
			c0.259,0.613-1.033,0.84-0.24,1.2c-0.027-0.997,2.117-1.07,1.44-1.92C457.104,469.77,457.124,470.43,456.317,470.263z
			 M450.797,475.783c0.475-0.326,1.117-0.483,1.2-1.2C451.468,474.709,450.264,475.388,450.797,475.783z M436.638,498.823
			c0.499-0.526,0.775,0.21,1.199-0.24c0-0.24,0-0.48,0-0.72C437.123,497.728,436.406,498.807,436.638,498.823z M409.997,504.823
			c3.456-0.465,5.526-2.314,7.44-4.32C414.688,501.674,411.041,501.946,409.997,504.823z M187.037,537.223
			c0.659-0.369-0.01-1.406-0.48-1.439C186.225,536.111,186.328,537.23,187.037,537.223z M352.877,539.863
			c0.805,0.569,2.272,0.143,2.16-0.96C353.863,538.769,352.98,538.927,352.877,539.863z M187.997,544.423
			c-0.263-1.455-0.462-1.697-1.2-2.4C185.891,542.76,187.354,543.806,187.997,544.423z M291.677,549.223
			c0.546-1.053,2.844-0.355,3.36-1.439C293.883,548.074,291.36,548.26,291.677,549.223z M188.478,549.943
			c-0.085-0.716-0.139-1.462-0.72-1.681C187.704,549.117,187.919,549.701,188.478,549.943z M287.597,549.943
			c1.058,0.018,2.063-0.018,2.4-0.721C288.918,549.184,287.864,549.169,287.597,549.943z M189.917,552.583
			c-0.081-0.56-0.246-1.034-0.72-1.2C189.15,552.07,189.167,552.692,189.917,552.583z M277.517,552.583
			c-0.689-0.05-1.219,0.061-1.44,0.479C276.466,553.455,277.584,553.352,277.517,552.583z M275.117,552.823
			c-2.255-0.429-4.961,0.576-6.48,0.96c-2.624,0.663-5.821,0.45-7.68,1.92c5.114-0.485,10.304-0.896,14.88-1.92
			c0.013-0.307,0.308-0.333,0.24-0.721C275.753,552.987,275.619,552.722,275.117,552.823z M192.317,559.303
			c0.122,0.758,1.096,0.664,1.68,0.96c0.202-0.278,0.317-0.644,0.24-1.2C193.663,559.208,193.143,559.408,192.317,559.303z
			 M246.077,574.663c-0.205,1.06,1.557,0.852,1.44,0C246.621,574.642,246.833,574.394,246.077,574.663z M251.117,574.903
			c0.415,0.418,1.484,0.266,1.68-0.24C252.474,574.336,251.122,574.205,251.117,574.903z M231.917,574.903
			c-0.579,0.098-0.522-0.438-1.2-0.24C230.577,575.636,231.705,575.425,231.917,574.903z M234.317,575.383c0.8,0,1.6,0,2.4,0
			C236.611,574.422,234.423,574.422,234.317,575.383z M237.197,575.383c2.077,0.064,5.405,0.656,7.44-0.479
			C242.282,575.188,238.766,574.312,237.197,575.383z"/>
		<path d="M419.117,322.903c-1.243,1.197,0.719,2.137,0.24,3.12c-0.594-0.606-0.934-1.467-1.2-2.4
			C419.07,323.976,418.204,322.55,419.117,322.903z"/>
		<path d="M193.757,551.623c0.833,0.127,0.636,1.284,1.2,1.68C194.666,553.579,193.52,552.672,193.757,551.623z"/>
	</g>
</g>
</svg>
