<?xml version="1.0" encoding="utf-8"?>
<!-- Generator: Adobe Illustrator 15.1.0, SVG Export Plug-In . SVG Version: 6.00 Build 0)  -->
<!DOCTYPE svg PUBLIC "-//W3C//DTD SVG 1.1//EN" "http://www.w3.org/Graphics/SVG/1.1/DTD/svg11.dtd">
<svg version="1.1" id="Layer_1" xmlns="http://www.w3.org/2000/svg" xmlns:xlink="http://www.w3.org/1999/xlink" x="0px" y="0px"
	 width="194.362px" height="193.41px" viewBox="0 0 194.362 193.41" enable-background="new 0 0 194.362 193.41"
	 xml:space="preserve">
<path fill="#FFFFFF" d="M0,96.708c0,53.403,43.509,96.702,97.181,96.702c53.673,0,97.182-43.299,97.182-96.702
	C194.362,43.298,150.854,0,97.181,0C43.509,0,0,43.298,0,96.708"/>
<path fill="#F36D24" d="M40.254,124.059V50.93l56.951,56.672l56.896-56.614v73.071h26.209c2.858-8.605,4.411-17.799,4.411-27.352
	c0-48.109-39.188-87.113-87.54-87.113c-48.346,0-87.542,39.004-87.542,87.113c0,9.552,1.55,18.747,4.413,27.352H40.254z"/>
<path fill="#4E4D4D" d="M135.111,141.774v-46.23l-38.23,38.041L58.925,95.818v45.957H22.257
	c15.337,25.205,43.157,42.046,74.922,42.046c31.77,0,59.585-16.842,74.927-42.046H135.111z"/>
<rect fill="none" width="194.362" height="193.41"/>
</svg>
