<?xml version="1.0" encoding="utf-8"?>
<!-- Generator: Adobe Illustrator 15.1.0, SVG Export Plug-In . SVG Version: 6.00 Build 0)  -->
<!DOCTYPE svg PUBLIC "-//W3C//DTD SVG 1.1//EN" "http://www.w3.org/Graphics/SVG/1.1/DTD/svg11.dtd">
<svg version="1.1" id="Layer_1" xmlns="http://www.w3.org/2000/svg" xmlns:xlink="http://www.w3.org/1999/xlink" x="0px" y="0px"
	 width="360px" height="59.004px" viewBox="0 0 360 59.004" enable-background="new 0 0 360 59.004" xml:space="preserve">
<path d="M351.423,8.631c-5.711-5.748-12.542-8.628-20.493-8.628c-5.242,0-10.144,1.317-14.678,3.949
	c-4.551,2.634-8.123,6.206-10.718,10.716c-2.594,4.51-3.896,9.452-3.896,14.82c0,8.021,2.788,14.941,8.371,20.771
	c5.576,5.839,12.58,8.746,20.998,8.746c8.045,0,14.891-2.828,20.535-8.513c5.643-5.67,8.459-12.617,8.459-20.818
	C360,21.407,357.145,14.394,351.423,8.631 M343.951,43.164c-3.557,3.665-7.873,5.49-12.945,5.49c-4.482,0-8.447-1.406-11.914-4.238
	c-4.459-3.609-6.686-8.523-6.686-14.743c0-5.567,1.771-10.167,5.316-13.78c3.533-3.624,7.9-5.422,13.102-5.422
	c5.139,0,9.506,1.852,13.089,5.552c3.599,3.703,5.397,8.228,5.397,13.585C349.311,34.978,347.527,39.489,343.951,43.164"/>
<path d="M282.908,32.773c3.736-1.341,6.542-3.311,8.402-5.911c1.861-2.612,2.778-5.843,2.778-9.73c0-3.681-0.834-6.882-2.518-9.58
	c-1.683-2.693-3.912-4.624-6.676-5.787c-2.766-1.163-7.403-1.751-13.932-1.751h-20.66v58.979h11.221V34.02h9.793l13.275,24.973
	h12.274L282.908,32.773z M281.213,21.662c-1.355,0.944-1.995,1.411-5.58,1.411h-14.109V11.003h13.671
	c2.741,0,3.225,0.205,4.348,0.629c1.122,0.409,2.011,1.095,2.682,2.04c0.671,0.943,0.998,2.065,0.998,3.351
	C283.223,19.185,282.554,20.732,281.213,21.662"/>
<polygon points="200.002,0.002 238.241,0.002 238.241,10.99 211.156,10.99 211.156,23.06 238.241,23.06 238.241,33.858 
	211.156,33.858 211.156,47.95 238.241,47.95 238.241,58.981 200.002,58.981 "/>
<polygon points="140.754,0.002 151.497,0.002 176.798,38.812 176.798,0.002 188.021,0.002 188.021,58.979 177.237,58.979 
	151.977,20.296 151.977,58.979 140.754,58.979 "/>
<path d="M123.297,8.606c-5.694-5.731-12.504-8.604-20.434-8.604c-5.226,0-10.112,1.312-14.634,3.937
	c-4.538,2.626-8.097,6.187-10.686,10.685c-2.585,4.497-3.886,9.422-3.886,14.777c0,7.994,2.781,14.896,8.346,20.707
	c5.561,5.822,12.541,8.719,20.939,8.719c8.019,0,14.841-2.82,20.469-8.486c5.629-5.654,8.437-12.582,8.437-20.757
	C131.849,21.343,129,14.351,123.297,8.606 M115.849,43.035c-3.55,3.653-7.851,5.471-12.906,5.471c-4.473,0-8.423-1.401-11.881-4.222
	c-4.446-3.6-6.665-8.5-6.665-14.7c0-5.549,1.764-10.138,5.299-13.738c3.522-3.615,7.875-5.408,13.063-5.408
	c5.121,0,9.476,1.846,13.05,5.538c3.585,3.69,5.38,8.201,5.38,13.542C121.189,34.873,119.409,39.372,115.849,43.035"/>
<polygon points="10.182,0 21.169,0 34.798,41.136 48.635,0 59.457,0 69.394,58.979 58.57,58.979 52.233,21.731 39.685,58.979 
	29.79,58.979 17.407,21.731 10.948,58.979 0,58.979 "/>
</svg>
